<svg xmlns="http://www.w3.org/2000/svg" viewBox="0 0 515.12 85.92"><defs><style>.cls-1{fill:#fff;}</style></defs><g id="Layer_2" data-name="Layer 2"><g id="Layer_1-2" data-name="Layer 1"><path class="cls-1" d="M79.91,35.56a23,23,0,0,0-2.64-5.45,3.69,3.69,0,0,0-1-2.32,23,23,0,0,0-2-5.72A7.56,7.56,0,0,0,63.85,11.6a23,23,0,0,0-5.72-2,3.69,3.69,0,0,0-2.32-1A23,23,0,0,0,50.36,6a7.56,7.56,0,0,0-14.8,0,23,23,0,0,0-5.45,2.64,3.69,3.69,0,0,0-2.32,1,23,23,0,0,0-5.72,2A7.56,7.56,0,0,0,11.6,22.07a23.21,23.21,0,0,0-2,5.7,3.74,3.74,0,0,0-1,2.35A22.94,22.94,0,0,0,6,35.56a7.56,7.56,0,0,0,0,14.8,23,23,0,0,0,2.64,5.45,3.69,3.69,0,0,0,1,2.32,23,23,0,0,0,2,5.72A7.57,7.57,0,0,0,22.07,74.32a23,23,0,0,0,5.72,2,3.69,3.69,0,0,0,2.32,1,23,23,0,0,0,5.45,2.64,7.56,7.56,0,0,0,14.8,0,23.3,23.3,0,0,0,5.46-2.64,3.69,3.69,0,0,0,2.31-1,23,23,0,0,0,5.72-2A7.56,7.56,0,0,0,74.32,63.85a23,23,0,0,0,2-5.71,3.74,3.74,0,0,0,1-2.32,23.3,23.3,0,0,0,2.64-5.46,7.56,7.56,0,0,0,0-14.8Zm.89,11.11a4.5,4.5,0,0,1-1,.49,4.39,4.39,0,0,1-1,.22l-.4,0a4.47,4.47,0,0,1-2.17-.57,4.6,4.6,0,0,1-.81-.58,4.87,4.87,0,0,1-.81-1,4.39,4.39,0,0,1,0-4.6,4.55,4.55,0,0,1,.81-1,4.19,4.19,0,0,1,.81-.59,4.47,4.47,0,0,1,2.17-.57l.4,0a4.39,4.39,0,0,1,1,.22,4.5,4.5,0,0,1,1,.49,4.43,4.43,0,0,1,0,7.42ZM71.13,71.13a4.41,4.41,0,0,1-4,1.21A4.12,4.12,0,0,1,66,72a4.29,4.29,0,0,1-.87-.56,3.92,3.92,0,0,1-.31-.28,4.41,4.41,0,0,1-1.13-1.93,4.65,4.65,0,0,1-.16-1c0-.07,0-.14,0-.22a4.56,4.56,0,0,1,.13-1A4.39,4.39,0,0,1,67,63.68a4.56,4.56,0,0,1,1-.13h.22a4.65,4.65,0,0,1,1,.16,4.41,4.41,0,0,1,1.93,1.13,3.92,3.92,0,0,1,.28.31A4.29,4.29,0,0,1,72,66a4.12,4.12,0,0,1,.37,1.07A4.41,4.41,0,0,1,71.13,71.13Zm-11.82,3a3.17,3.17,0,0,0,0-.53,3.65,3.65,0,0,0-.61-2,17.92,17.92,0,0,0,2.19-.82A7.51,7.51,0,0,0,62.33,73,21,21,0,0,1,59.31,74.1Zm-8.82,3.77a7.35,7.35,0,0,0-.63-2.57,18.7,18.7,0,0,0,2.14-1,3.64,3.64,0,0,0,1,1.87,3.36,3.36,0,0,0,.41.34A22,22,0,0,1,50.49,77.87ZM46.67,80.8a4.44,4.44,0,0,1-7.42,0,4.5,4.5,0,0,1-.49-1,4.39,4.39,0,0,1-.22-1c0-.13,0-.26,0-.4a4.47,4.47,0,0,1,.57-2.17,4.19,4.19,0,0,1,.59-.81,4.55,4.55,0,0,1,1-.81,4.39,4.39,0,0,1,4.6,0,4.55,4.55,0,0,1,1,.81,4.19,4.19,0,0,1,.59.81,4.47,4.47,0,0,1,.57,2.17c0,.14,0,.27,0,.4a4.39,4.39,0,0,1-.22,1A4.5,4.5,0,0,1,46.67,80.8ZM32.5,76.54a3.47,3.47,0,0,0,.42-.34,3.69,3.69,0,0,0,1-1.87,18.7,18.7,0,0,0,2.14,1,7.35,7.35,0,0,0-.63,2.57A22,22,0,0,1,32.5,76.54Zm-13.68-4.2a4.44,4.44,0,0,1-5.24-5.24A4.52,4.52,0,0,1,14,66a4.29,4.29,0,0,1,.56-.87c.09-.1.18-.21.28-.31a4.43,4.43,0,0,1,1.93-1.13,4.24,4.24,0,0,1,1-.15l.22,0a4.21,4.21,0,0,1,1.05.14,4.45,4.45,0,0,1,2.09,1.16,4.45,4.45,0,0,1,1.29,3.36,4.75,4.75,0,0,1-.16,1,4.43,4.43,0,0,1-1.13,1.93,2.7,2.7,0,0,1-.31.28,4,4,0,0,1-.87.56A4.12,4.12,0,0,1,18.82,72.34ZM3.12,43a4.43,4.43,0,0,1,2-3.71,4.5,4.5,0,0,1,1-.49,4.39,4.39,0,0,1,1-.22l.4,0a4.47,4.47,0,0,1,2.17.57,4.19,4.19,0,0,1,.81.59,4.55,4.55,0,0,1,.81,1,4.39,4.39,0,0,1,0,4.6,4.55,4.55,0,0,1-.81,1,4.19,4.19,0,0,1-.81.59,4.47,4.47,0,0,1-2.17.57l-.4,0a4.39,4.39,0,0,1-1-.22,4.5,4.5,0,0,1-1-.49A4.43,4.43,0,0,1,3.12,43ZM14.79,14.79a4.44,4.44,0,0,1,4-1.21,4.52,4.52,0,0,1,1.07.37,4.29,4.29,0,0,1,.87.56l.31.28a4.43,4.43,0,0,1,1.13,1.93,4.86,4.86,0,0,1,.16,1,4.43,4.43,0,0,1-4.65,4.65,4.86,4.86,0,0,1-1-.16,4.43,4.43,0,0,1-1.93-1.13,4.12,4.12,0,0,1-.28-.31,4.29,4.29,0,0,1-.56-.87,4.52,4.52,0,0,1-.37-1.07A4.41,4.41,0,0,1,14.79,14.79Zm11.82-3a4.75,4.75,0,0,0-.05.53,3.65,3.65,0,0,0,.61,2,20.68,20.68,0,0,0-2.2.82,7.61,7.61,0,0,0-1.37-2.27A22.12,22.12,0,0,1,26.61,11.82Zm8.82-3.77a7.35,7.35,0,0,0,.63,2.57,19.6,19.6,0,0,0-2.14,1,3.68,3.68,0,0,0-1-1.88,3.47,3.47,0,0,0-.42-.34A22,22,0,0,1,35.43,8.05Zm3.82-2.93a4.44,4.44,0,0,1,7.42,0,4.5,4.5,0,0,1,.49,1,4.39,4.39,0,0,1,.22,1c0,.13,0,.26,0,.4a4.47,4.47,0,0,1-.57,2.17,4.19,4.19,0,0,1-.59.81,4.28,4.28,0,0,1-1,.81,4.39,4.39,0,0,1-4.6,0,4.28,4.28,0,0,1-1-.81,4.19,4.19,0,0,1-.59-.81,4.44,4.44,0,0,1-.57-2.17c0-.14,0-.27,0-.4a4.39,4.39,0,0,1,.22-1A4.5,4.5,0,0,1,39.25,5.12ZM53.42,9.38a4.46,4.46,0,0,0-.42.34,3.68,3.68,0,0,0-1,1.88,18.77,18.77,0,0,0-2.14-1,7.35,7.35,0,0,0,.63-2.57A22,22,0,0,1,53.42,9.38Zm13.68,4.2a4.44,4.44,0,0,1,5.24,5.24A4.12,4.12,0,0,1,72,19.89a4.29,4.29,0,0,1-.56.87,2.7,2.7,0,0,1-.28.31A4.41,4.41,0,0,1,69.2,22.2a4.65,4.65,0,0,1-1,.16H68a4.56,4.56,0,0,1-1-.13A4.4,4.4,0,0,1,63.68,19a4.57,4.57,0,0,1-.13-1.05c0-.08,0-.15,0-.22a4.65,4.65,0,0,1,.16-1,4.41,4.41,0,0,1,1.13-1.93l.31-.28A4.29,4.29,0,0,1,66,14,4.52,4.52,0,0,1,67.1,13.58ZM74.88,57h0a1.54,1.54,0,0,1-.29.23A1.9,1.9,0,0,1,72.26,57a1.54,1.54,0,0,1-.25-.32,1.8,1.8,0,0,1-.3-1,1.87,1.87,0,0,1,1.46-1.81,1.75,1.75,0,0,1,.4,0,1.87,1.87,0,0,1,1.31.55,1.82,1.82,0,0,1,.5.92A1.87,1.87,0,0,1,74.88,57ZM70.93,53a3.64,3.64,0,0,0-.86,3.87,16.46,16.46,0,0,1-1.2,3.61,8.49,8.49,0,0,0-.88-.05A7.55,7.55,0,0,0,60.44,68a8.49,8.49,0,0,0,.05.88,16.46,16.46,0,0,1-3.61,1.2,3.64,3.64,0,0,0-3.87.86,3.81,3.81,0,0,0-.72,1,16.74,16.74,0,0,1-3.41,1.71,7.54,7.54,0,0,0-11.84,0A17,17,0,0,1,33.63,72a4,4,0,0,0-.71-1,3.73,3.73,0,0,0-2.64-1.09,3.68,3.68,0,0,0-1.24.23,16.72,16.72,0,0,1-3.62-1.2,7.52,7.52,0,0,0-8.37-8.37,16.72,16.72,0,0,1-1.2-3.62A3.64,3.64,0,0,0,15,53a3.81,3.81,0,0,0-1-.72,16.74,16.74,0,0,1-1.71-3.41,7.54,7.54,0,0,0,0-11.84,17.07,17.07,0,0,1,1.7-3.39,3.74,3.74,0,0,0,2.14-3.37A3.47,3.47,0,0,0,15.85,29a17.79,17.79,0,0,1,1.2-3.61,6.51,6.51,0,0,0,.88.06,7.53,7.53,0,0,0,7.49-8.43A16.72,16.72,0,0,1,29,15.85a3.68,3.68,0,0,0,1.24.23A3.73,3.73,0,0,0,32.92,15a4,4,0,0,0,.71-1A17,17,0,0,1,37,12.24a7.54,7.54,0,0,0,11.84,0A16.74,16.74,0,0,1,52.29,14,3.81,3.81,0,0,0,53,15a3.64,3.64,0,0,0,3.87.86,16.46,16.46,0,0,1,3.61,1.2,8.49,8.49,0,0,0-.05.88A7.55,7.55,0,0,0,68,25.48a8.49,8.49,0,0,0,.88-.05A16.46,16.46,0,0,1,70.07,29a3.68,3.68,0,0,0-.23,1.24,3.73,3.73,0,0,0,1.09,2.64,4.3,4.3,0,0,0,1,.72A16.67,16.67,0,0,1,73.68,37a7.54,7.54,0,0,0,0,11.84A17,17,0,0,1,72,52.29,3.81,3.81,0,0,0,70.93,53ZM57.19,74.59a2.17,2.17,0,0,1-.24.29,1.87,1.87,0,0,1-1.7.5,1.82,1.82,0,0,1-.92-.5,1.85,1.85,0,0,1-.5-1.71,1.87,1.87,0,0,1,1.81-1.46,1.8,1.8,0,0,1,1,.3,1.54,1.54,0,0,1,.32.25,1.87,1.87,0,0,1,.24,2.33Zm-28.76-1A1.83,1.83,0,0,1,29,72.26a1.85,1.85,0,0,1,.32-.25,1.8,1.8,0,0,1,1-.3,1.86,1.86,0,0,1,1.31,3.17,1.82,1.82,0,0,1-.92.5,1.87,1.87,0,0,1-1.7-.5,2.17,2.17,0,0,1-.24-.29A1.9,1.9,0,0,1,28.43,73.57ZM10.54,55.25a1.82,1.82,0,0,1,.5-.92,1.87,1.87,0,0,1,1.31-.55,1.92,1.92,0,0,1,.41,0,1.88,1.88,0,0,1,1.45,1.81,1.8,1.8,0,0,1-.3,1,1.54,1.54,0,0,1-.25.32,1.9,1.9,0,0,1-2.33.23A1.54,1.54,0,0,1,11,57,1.87,1.87,0,0,1,10.54,55.25Zm0-25a1.85,1.85,0,0,1,3.41-1,1.8,1.8,0,0,1,.3,1,1.86,1.86,0,0,1-1.46,1.81,1.75,1.75,0,0,1-.4,0,1.85,1.85,0,0,1-1.81-1.47A1.61,1.61,0,0,1,10.5,30.28Zm18.23-19A2.17,2.17,0,0,1,29,11a1.86,1.86,0,0,1,1.31-.54,2.58,2.58,0,0,1,.39,0,1.9,1.9,0,0,1,.92.5,1.86,1.86,0,0,1,.5,1.72,1.84,1.84,0,0,1-.5.9,1.89,1.89,0,0,1-2.3.25,1.85,1.85,0,0,1-.32-.25,1.83,1.83,0,0,1-.54-1.31A1.93,1.93,0,0,1,28.73,11.33Zm28.76,1A1.83,1.83,0,0,1,57,13.66a1.85,1.85,0,0,1-.32.25,1.89,1.89,0,0,1-2.3-.25,1.84,1.84,0,0,1-.5-.9,1.86,1.86,0,0,1,.5-1.72,1.82,1.82,0,0,1,.92-.5,2.58,2.58,0,0,1,.39,0A1.86,1.86,0,0,1,57,11a2.17,2.17,0,0,1,.24.29A1.84,1.84,0,0,1,57.49,12.35ZM75.38,30.67a1.82,1.82,0,0,1-.5.92,1.85,1.85,0,0,1-1.71.5,1.87,1.87,0,0,1-1.46-1.81,1.8,1.8,0,0,1,.3-1,1.54,1.54,0,0,1,.25-.32,1.83,1.83,0,0,1,1.31-.54,1.9,1.9,0,0,1,1,.3,2.17,2.17,0,0,1,.29.24h0A1.87,1.87,0,0,1,75.38,30.67ZM11.59,33.93a18.56,18.56,0,0,0-1,2.13,7.35,7.35,0,0,0-2.57-.63,21.3,21.3,0,0,1,1.33-2.92A3.73,3.73,0,0,0,11.59,33.93ZM75.3,36.06a18.56,18.56,0,0,0-1-2.13,3.74,3.74,0,0,0,1.87-1,3.47,3.47,0,0,0,.34-.42,22,22,0,0,1,1.33,2.93A7.35,7.35,0,0,0,75.3,36.06Zm-1.73-9.5a3.65,3.65,0,0,0-2,.61A18.56,18.56,0,0,0,70.71,25,7.68,7.68,0,0,0,73,23.6a20.87,20.87,0,0,1,1.12,3A4.75,4.75,0,0,0,73.57,26.56ZM62.33,12.94a7.63,7.63,0,0,0-1.39,2.27,19.73,19.73,0,0,0-2.19-.82,3.65,3.65,0,0,0,.61-2,3.17,3.17,0,0,0,0-.53A22.25,22.25,0,0,1,62.33,12.94ZM12.94,23.59A7.44,7.44,0,0,0,15.21,25a21.52,21.52,0,0,0-.82,2.2,3.63,3.63,0,0,0-2-.61,4.73,4.73,0,0,0-.53,0A22.63,22.63,0,0,1,12.94,23.59ZM10.62,49.86a18.77,18.77,0,0,0,1,2.14,3.63,3.63,0,0,0-1.88,1,3.36,3.36,0,0,0-.34.41,22,22,0,0,1-1.33-2.93A7.35,7.35,0,0,0,10.62,49.86Zm1.73,9.5a3.65,3.65,0,0,0,2-.61,20.68,20.68,0,0,0,.82,2.2,7.44,7.44,0,0,0-2.27,1.38,22.25,22.25,0,0,1-1.12-3A3.17,3.17,0,0,0,12.35,59.36ZM23.6,73A7.61,7.61,0,0,0,25,70.71a20.68,20.68,0,0,0,2.2.82,3.65,3.65,0,0,0-.61,2,4.75,4.75,0,0,0,.05.53A22.12,22.12,0,0,1,23.6,73ZM73,62.33a7.51,7.51,0,0,0-2.27-1.39,17.92,17.92,0,0,0,.82-2.19,3.65,3.65,0,0,0,2,.61,3.17,3.17,0,0,0,.53,0A21,21,0,0,1,73,62.33ZM76.2,53a3.68,3.68,0,0,0-1.87-1,18.56,18.56,0,0,0,1-2.13,7.35,7.35,0,0,0,2.57.63,22,22,0,0,1-1.33,2.93A3.36,3.36,0,0,0,76.2,53Z"/><path class="cls-1" d="M107.18,52.38l.13-.61c0-2.29.47-2,.81-3.77,0-.13.47-2,.47-2.08s.13-1.41.13-1.82c.34,0,.2-1.88.34-2.21l.27-.68v-.4a4.78,4.78,0,0,0,.4-1.75l.88-3.23s.06-.47.06-.67.2-1.21.2-1.34l.47-.68.14-.6c0-.2.2-.81.2-1l.34-.67v-.2l.27-1.68.4-.61L113,28l.47-1.08a2.78,2.78,0,0,1,.47-.47l.13-.74c0-.2.54-.87.54-1.08l.4-.54.41-.6a2.65,2.65,0,0,1,2-1c1.27,0,1.41,1.14,2.56,1.75a15.46,15.46,0,0,1,1.61-.74,14.22,14.22,0,0,1,6.85-1.48h1.76a36.27,36.27,0,0,1,3.76,0,10.88,10.88,0,0,0,2.08.87c1.28.74,3.37,2.23,3.37,4,0,1.28-1.08,4.77-2,5.58a8.69,8.69,0,0,0-1.14,1.21l-.21.54a6.24,6.24,0,0,1-1.88,1.88l-.33.2-.21.14-.94,1.61-.33.2c-.34.81-.61.47-1.08.81-.2.2-1,1.14-1.21,1.28l-.33.2-2.36,1.68-1.08.54-.94.4-2.15,1.35H123l-.61.33a14.59,14.59,0,0,0-3.16,1.75c-1.41,1.14-3.09,1.75-4.16,3.16a19.32,19.32,0,0,0-.68,2.89v.54c0,.34-.13,1.41-.13,1.55l-.21.33a37.89,37.89,0,0,1-.74,4c-.33,1.41-1,2.62-1.21,4.1l-.26.13a3.53,3.53,0,0,1-1.42-.6l-.67-.41-.2-.2c-1.88-2.22-2.22-4.57-2.22-7.66C107.31,53.92,107.65,53.25,107.18,52.38Zm11-16.27c0,.13-.54,2.21-.54,2.48l-.21.34a20,20,0,0,1-.4,2l-.2.94c0,.2-.4.94-.4,1.21s-.4,1.61-.4,1.74v.81A23.83,23.83,0,0,0,118.14,44c1.14-.87,1.88-1.28,2.69-1.88,1.21-.88,2.08-.88,2.21-1.48l.74-.61,2.69-2h.2s.34-.33.34-.53l.67-.47.2-.21.21-.33.81-.74.74-.67c.13,0,.47-.47.6-.74.67-.81,2.76-3.3,3-3.43l1-1.75a2.14,2.14,0,0,0,.33-1.41c0-1.21-2-1.55-3-1.82-.13,0-1.68-.13-2.15-.13h-.53a31,31,0,0,0-3.57.53h-.74l-.13.21a7.69,7.69,0,0,1-1.08.47A8.61,8.61,0,0,0,120,29.11c-.34.27-.13.81-.34,1.21l-.13.34v.67l-.4.67v.54l-.27.34c0,.33-.28,1.68-.28,1.94C118.34,35,118.47,35.16,118.14,36.11Z"/><path class="cls-1" d="M111.89,63.93l-.17,0a3.42,3.42,0,0,1-1.32-.52l-1-.64-.2-.19c-2-2.33-2.37-4.8-2.37-8a4.34,4.34,0,0,1,.06-.61,1.84,1.84,0,0,0-.13-1.31l-.09-.16.16-.73a5.35,5.35,0,0,1,.42-2.46,6.87,6.87,0,0,0,.4-1.35,7.71,7.71,0,0,1,.24-1.06c.1-.43.21-.86.22-1s0-.41.06-.75.07-.81.07-1v-.5h.21c0-.24,0-.64,0-.88a3.41,3.41,0,0,1,.12-1l.23-.58,0-.49a4.31,4.31,0,0,0,.37-1.57l0-.13.87-3.22s0-.38,0-.55,0-.41.11-.75.09-.52.09-.61v-.14l.5-.72.1-.47a4.13,4.13,0,0,1,.12-.56,1.92,1.92,0,0,0,.08-.39l.06-.21.28-.65.35-2,.66-.92.44-1a2.89,2.89,0,0,1,.47-.54l.1-.56a1.66,1.66,0,0,1,.34-.71c.07-.11.18-.3.21-.36v-.17l.08,0,.79-1.13A3.17,3.17,0,0,1,117.33,22a2.36,2.36,0,0,1,1.89,1,4.12,4.12,0,0,0,.67.65c.19-.1.49-.22,1-.42l.44-.19a14.63,14.63,0,0,1,7.07-1.53h1.76l.65,0a18.9,18.9,0,0,1,3.23,0l.16.07a4.19,4.19,0,0,0,1.14.51,7.16,7.16,0,0,1,.87.32c1.69,1,3.65,2.53,3.65,4.49,0,1.27-1.05,5-2.18,6a8.16,8.16,0,0,0-1,1l-.19.51a6.53,6.53,0,0,1-2.11,2.14l-.4.25L133,38.48l-.31.19a1.23,1.23,0,0,1-.92.76.66.66,0,0,0-.26.11l-.28.32a6.8,6.8,0,0,1-.94,1l-.36.22-2.32,1.65-1.14.59-1,.41-2.21,1.39h-.14l-.5.27a14.5,14.5,0,0,0-3.11,1.72,16.74,16.74,0,0,1-1.66,1.13,8.47,8.47,0,0,0-2.4,1.92,6.43,6.43,0,0,0-.33,1.48,10.71,10.71,0,0,1-.24,1.18v.47c0,.22-.05.72-.09,1.11,0,.21,0,.38,0,.44v.13l-.21.36a25.32,25.32,0,0,1-.51,2.92c-.08.35-.16.7-.23,1a17.09,17.09,0,0,1-.56,1.79,11.37,11.37,0,0,0-.64,2.28l0,.26ZM110,62l.88.53a2.27,2.27,0,0,0,.72.33,14.86,14.86,0,0,1,.64-2.14,16.82,16.82,0,0,0,.53-1.66c.06-.34.14-.7.22-1a23.74,23.74,0,0,0,.5-2.92l0-.11.2-.33c0-.1,0-.23,0-.38,0-.36.09-.82.09-1l0-.69a9,9,0,0,0,.23-1.11,6.14,6.14,0,0,1,.48-1.85,9.17,9.17,0,0,1,2.71-2.25,14.85,14.85,0,0,0,1.59-1.08,15.3,15.3,0,0,1,3.29-1.83l.66-.36H123l2-1.28,1-.43,1-.53L129.72,40c.08-.07.5-.54.72-.79l.39-.42a1.66,1.66,0,0,1,.67-.31c.15,0,.18,0,.3-.33l.06-.15.36-.22.94-1.61.65-.41a5.92,5.92,0,0,0,1.7-1.68l.18-.48c.05-.15.17-.36,1.2-1.34l.08-.08c.76-.65,1.84-3.92,1.84-5.2,0-1.63-2.17-3.06-3.11-3.6a6,6,0,0,0-.72-.26,5.11,5.11,0,0,1-1.31-.58c-.48-.06-2.21,0-2.88,0l-.68,0h-1.76A13.78,13.78,0,0,0,121.71,24l-.49.21c-.29.13-.9.38-1,.46l-.26.28-.29-.22a4.31,4.31,0,0,1-1.18-1c-.41-.46-.63-.69-1.14-.69a2.22,2.22,0,0,0-1.58.84l-.71,1a2.88,2.88,0,0,1-.31.6,2.49,2.49,0,0,0-.21.36l-.16.92-.15.12a2,2,0,0,0-.36.35l-.5,1.12-.27.33-.32.48-.25,1.58V31l-.35.69a3.86,3.86,0,0,1-.1.49,3.34,3.34,0,0,0-.09.39v.1l-.22.78-.4.57-.08.57c0,.26-.09.52-.1.61s-.07.72-.07.72l-.87,3.23a5,5,0,0,1-.4,1.77l0,.5-.26.67c0,.08,0,.45,0,.69a3.32,3.32,0,0,1-.27,1.6c0,.24,0,.56-.06.85s-.06.6-.06.71a6.86,6.86,0,0,1-.25,1.16c-.1.43-.21.85-.22,1a7.72,7.72,0,0,1-.46,1.58,4.44,4.44,0,0,0-.35,2.14v.1l-.1.44a2.88,2.88,0,0,1,.16,1.76,2.49,2.49,0,0,0,0,.46c0,3.08.34,5.26,2.1,7.34Zm5.45-15.54V44.84a2.81,2.81,0,0,1,.15-.67c.08-.3.24-.92.25-1.07a2.61,2.61,0,0,1,.26-.88,3.61,3.61,0,0,0,.15-.38l.21-1c.12-.46.37-1.76.38-1.94v-.11l.21-.36c0-.24.14-.68.34-1.55.1-.39.18-.72.19-.82l0-.12a7.07,7.07,0,0,0,.22-.78,1.24,1.24,0,0,1,.23-.56c0-.17.06-.41.12-.74s.14-.85.14-1V32.7l.27-.33v-.51l.4-.67,0-.72.14-.34a.89.89,0,0,0,.07-.4,1.32,1.32,0,0,1,.36-1,7.71,7.71,0,0,1,3-2l.7-.27.5-.25.24-.12.21-.31h1c.38,0,.82-.13,1.26-.22a11,11,0,0,1,2.31-.31h.53c.32,0,1.09.06,1.64.1l.52,0,.13,0,.4.11c1.1.28,2.92.75,2.92,2.19a2.53,2.53,0,0,1-.4,1.65l-1.07,1.87-.1.06s-.44.45-2.81,3.29a2.28,2.28,0,0,1-.75.88l-1.43,1.31-.24.37-.21.2-.58.42a1.88,1.88,0,0,1-.43.59l-.14.14h-.24l-3.17,2.42a1.88,1.88,0,0,1-1.09.88,7.43,7.43,0,0,0-1.26.71c-.35.26-.69.49-1.06.73s-1,.66-1.62,1.14l-.1.09a18.64,18.64,0,0,1-2.13,1.65Zm1.8-4.49a2.57,2.57,0,0,1-.22.65,4.64,4.64,0,0,0-.18.5,6.85,6.85,0,0,1-.29,1.32,1.94,1.94,0,0,0,0,.2l1.15-.94.12-.11c.68-.52,1.22-.87,1.69-1.19s.68-.45,1-.7a8,8,0,0,1,1.42-.81c.36-.17.58-.28.61-.38l0-.17.88-.71,2.83-2.14h.15a.38.38,0,0,0,.07-.11v-.26l.21-.07.75-.57.27-.4,1.73-1.54a3.35,3.35,0,0,0,.31-.46l.06-.1c2.15-2.56,2.75-3.23,3-3.43l1-1.68A1.63,1.63,0,0,0,134,27.7c0-.67-1.35-1-2.16-1.22l-.38-.1-.51,0c-.52,0-1.26-.09-1.56-.09h-.53a10.3,10.3,0,0,0-2.11.29c-.47.09-.94.19-1.4.24h-.53l-.08.12-.16.06-.29.14a3.35,3.35,0,0,1-.81.34l-.42.2a6.8,6.8,0,0,0-2.68,1.77l-.09.09a1.55,1.55,0,0,0,0,.29,1.89,1.89,0,0,1-.16.76l-.08.2v.72l-.4.67v.58l-.28.35c0,.21-.08.52-.15,1s-.11.68-.12.81v.24l-.19.15a.46.46,0,0,0,0,.16,6.83,6.83,0,0,1-.24.84c0,.12-.07.34-.21.89s-.31,1.33-.32,1.5v.11l-.21.37c-.07.47-.3,1.62-.4,2Z"/><path class="cls-1" d="M142.16,58l.33-2.28v-.47c0-.2.47-1.75.47-2V52.17c0-.13.27-.47.47-.94,0-.2.2-.87.34-.87,0-.21.4-1.55.4-1.82,0-1.14-1.95-3-1.95-3.29s1-1,1.21-1.48c.34,0,1.68-.2,1.82-.2a1.6,1.6,0,0,0,1.41-1c1-1.21,1.21-2.69,2-4,.54-1,1.14-1.76,1.55-2.76l.26-1c.68-1.34,1.95-2.48,1.95-3.89h-.53l-.34.2a5.47,5.47,0,0,0-.67.4l-.47.27-.61.54-.8.13c-.81.2-1.55,1.21-2.56,1.21-.54-.2-1.68-1-2.29-1.34l-.74-1c-.6-.74-1.41-1.34-1.41-2.42v-.67l.81-.74c.6-.61,1.54-.61,2.28-.81,6.93-2.15,15.47-4.3,23.07-4.3h2.28l2,.34v.19c0,.68-1.62,1.35-2.09,1.55h-.61l-1.14,1c-.4,0-1,.61-1.41.8l-.74.21c-.2,0-1,.34-1.14.34s-1,.53-1.21.53a2.06,2.06,0,0,1-.54.27l-1.75.54-1-.2a4.54,4.54,0,0,0-.8.2c-.34.2-.14.87-.61,1s-.54,0-.54.54c0,.2-.2,1.54-.2,1.74a31.31,31.31,0,0,1-1.35,3.5c-.8,1.75-1.34,3.49-2.35,5.25v.6h.81l.13.27a10.05,10.05,0,0,1,1.41-.47l.81-.2c.27,0,.74-.47.95-.47l.87-.34c.13,0,1.88-.41,2-.41a50.47,50.47,0,0,1,7.39-1.34h1.14c.81,0,1.55-.4,2.56-.4h.2c-.61.61-1.21.4-2.42,1.14h-.34l-.33.27-.61.54c-1.61,1.34-2,1-3.49,1.75-.21,0-.61.33-.74.33l-1.21.81-.94.54-1.21,1.61-1.55.61-1.89.67h-.4a1.7,1.7,0,0,0-.6.27l-.21.4-.13.2c-.81.34-.14.41-1.14.41l-2.83,1.21s-.6.33-.6.6l-1.55.13c-.67.88-.4.68-.74,1.82a27.64,27.64,0,0,0-1.74,5.85v.94c.2,0,1.07-.07,1.34-.07,1.75-.13,1.61-.26,3.16-1.07.13-.2,1.68-.81,1.88-1,1.75-.87,3.09-1.95,4.91-2.69,2.69-1.35,5.58-2,8.47-3,.94-.13,1.95-.87,2.9-.87l-2.16,1.88c-.34.6-.34.2-.94.6l-.61.61c-.73.54-1.74,1-2.48,1.48-.2,0-.81.88-1,.88a2.63,2.63,0,0,1-.74.33A18.91,18.91,0,0,0,160,56.75l-.14.2-.2.8-.47.21c-.21.13-.87.8-1.15.8l-.4.34h-.54A23,23,0,0,0,154,60.85c-1.14.6-2.29.94-3.5,1.54a16.52,16.52,0,0,1-6,1.41h-.2a4.26,4.26,0,0,1-1.15-.94,4.59,4.59,0,0,1-1-3.49Z"/><path class="cls-1" d="M144.51,64.3l-.4,0a4,4,0,0,1-1.2-.94l-.1-.11a5.05,5.05,0,0,1-1.15-3.84V58l.34-2.28v-.4a5.33,5.33,0,0,1,.26-1.12c.08-.3.2-.76.21-.86V52.17a1.26,1.26,0,0,1,.23-.6,3.46,3.46,0,0,0,.26-.48,2.29,2.29,0,0,1,.35-1c0-.15.08-.35.17-.67s.19-.79.2-.9c0-.56-.81-1.57-1.29-2.17s-.66-.83-.66-1.12.32-.7.73-1.09a3.16,3.16,0,0,0,.52-.58l.13-.31h.33c.18,0,.8-.08,1.18-.13l.64-.07c.34,0,.62-.13,1-.76a7.79,7.79,0,0,0,1.18-2.24,12.6,12.6,0,0,1,.84-1.8c.2-.38.43-.74.65-1.09a10.7,10.7,0,0,0,.86-1.6l.25-.89a11.8,11.8,0,0,1,.88-1.45,6.59,6.59,0,0,0,1-1.69h0a6.17,6.17,0,0,0-.62.37l-.52.3-.64.58-.94.15a3.67,3.67,0,0,0-.8.46,3.25,3.25,0,0,1-1.84.76l-.17,0a10,10,0,0,1-1.54-.87c-.31-.2-.6-.38-.82-.5l-.16-.14-.74-1c-.11-.14-.24-.28-.37-.43a3.31,3.31,0,0,1-1.14-2.29V28l1-.89a3.43,3.43,0,0,1,1.91-.8c.2,0,.4-.07.58-.12,9.35-2.91,17-4.32,23.2-4.32h2.28l2.46.41v.62c0,.87-1.19,1.5-2.35,2l-.24.06h-.42l-1.14,1h-.19a2.65,2.65,0,0,0-.62.38,4.15,4.15,0,0,1-.57.37l-1,.26a4.23,4.23,0,0,0-.51.17,2.25,2.25,0,0,1-.63.17s-.23.13-.37.21a4.58,4.58,0,0,1-.65.3,1.74,1.74,0,0,1-.64.28l-1.82.56-1.06-.21a4.72,4.72,0,0,0-.5.14.5.5,0,0,1,0,.14,1.08,1.08,0,0,1-.65.89,1.12,1.12,0,0,1-.24.1c0,.13-.05.52-.1.92s-.1.7-.1.81a29,29,0,0,1-1.39,3.7c-.29.62-.54,1.25-.8,1.87a26.84,26.84,0,0,1-1.49,3.27h.6l.07.14a5.91,5.91,0,0,1,1.07-.34l.9-.2.26-.18a1.73,1.73,0,0,1,.56-.28l1-.35.9-.19c.67-.15.91-.2,1-.21a49.55,49.55,0,0,1,7.44-1.35h1.18a4.43,4.43,0,0,0,1-.17A6.17,6.17,0,0,1,173,37h1.41l-.86.85a2.62,2.62,0,0,1-1.23.66,5,5,0,0,0-1.28.56l-.12.07h-.3l-.79.68a5.77,5.77,0,0,1-2.39,1.35,10.67,10.67,0,0,0-1.22.48l-.21,0s-.12.08-.19.12a2.34,2.34,0,0,1-.35.18l-1.14.75-.88.51-1.23,1.64-1.68.66-2.07.71h-.4l-.22.12-.39.65-.14.06c-.22.1-.26.14-.27.16-.23.27-.47.28-1,.29l-2.73,1.16a2.43,2.43,0,0,0-.3.24v.37l-1.79.15a1.23,1.23,0,0,0-.32.69c0,.17-.09.41-.2.79A27.3,27.3,0,0,0,149,56.67V57h.06l.79,0a3.71,3.71,0,0,0,2.17-.6l.69-.38a5,5,0,0,1,1.07-.58c.27-.13.68-.32.77-.39l.12-.08c.72-.36,1.38-.76,2-1.15a20.55,20.55,0,0,1,2.92-1.55,35.1,35.1,0,0,1,5.62-2.06c.95-.28,1.92-.57,2.88-.91a5.63,5.63,0,0,0,1.26-.41,4.79,4.79,0,0,1,1.8-.49h1.33l-3.1,2.7a.94.94,0,0,1-.73.56.83.83,0,0,0-.32.14l-.53.55a15.06,15.06,0,0,1-1.59,1c-.35.2-.69.38-1,.57l-.14.08c-.08.07-.19.2-.27.28a1.93,1.93,0,0,1-.68.56,2.58,2.58,0,0,1-.79.36,16.93,16.93,0,0,0-2.8,1.75l-.31.26-.24,1-.7.31-.15.15a3,3,0,0,1-1,.65l-.44.38h-.64a8.14,8.14,0,0,0-1.68.93c-.4.25-.81.52-1.26.76-.63.33-1.27.59-1.88.84s-1.08.43-1.63.71A17.1,17.1,0,0,1,144.51,64.3Zm-.09-1h.09a16.14,16.14,0,0,0,5.77-1.36c.58-.29,1.14-.52,1.69-.74a16.84,16.84,0,0,0,1.79-.8,13.15,13.15,0,0,0,1.18-.71,8.87,8.87,0,0,1,2-1.06l.16,0h.36l.4-.34H158s.39-.33.54-.45a2.31,2.31,0,0,1,.33-.27l.32-.14.22-.73.25-.33.34-.25a18.37,18.37,0,0,1,3-1.89l.21,0a4.75,4.75,0,0,0,.47-.26l.14-.07.27-.28a2,2,0,0,1,.67-.57c.29-.18.63-.36,1-.55a14.61,14.61,0,0,0,1.43-.86l.55-.56a1.77,1.77,0,0,1,.77-.35l.09-.14.1-.13.37-.32a4.62,4.62,0,0,1-.71.18c-.88.32-1.85.61-2.82.9a33.33,33.33,0,0,0-5.5,2,19.71,19.71,0,0,0-2.81,1.5c-.64.39-1.31.79-2,1.16a7,7,0,0,1-1,.51,6.85,6.85,0,0,0-.83.42l-.07.11h-.06l-.74.4a4.69,4.69,0,0,1-2.61.73l-.77,0-.61,0h-.5V56.61a27.24,27.24,0,0,1,1.78-6c.08-.3.12-.51.16-.67a2.39,2.39,0,0,1,.64-1.27l.14-.18,1.48-.12a2.12,2.12,0,0,1,.69-.57L156,46.5h.36a1.43,1.43,0,0,1,.45-.3l.05-.07.23-.48.11-.07a1.92,1.92,0,0,1,.88-.35h.32l3.2-1.2,1.28-1.62.94-.55,1.38-.87.12-.07a2.08,2.08,0,0,1,.55-.25,11.54,11.54,0,0,1,1.28-.49,4.9,4.9,0,0,0,2-1.16l.76-.66h-.64A50.43,50.43,0,0,0,162,39.68h-.11l-.91.2-1,.2-1,.35c.05,0-.06.08-.14.12a1.7,1.7,0,0,1-.73.35l-.77.18a4.56,4.56,0,0,0-1,.34,1.36,1.36,0,0,1-.5.15h-.31l-.13-.27h-1V40.07l.07-.11A26,26,0,0,0,156,36.67c.26-.64.52-1.28.81-1.92a34.24,34.24,0,0,0,1.3-3.33c0-.07.05-.48.11-.9s.09-.7.09-.81a.8.8,0,0,1,.64-.91l.15-.05.11-.05h0s0-.11,0-.18a1.09,1.09,0,0,1,.47-.78l.1,0a4.19,4.19,0,0,1,1-.23l1,.19,1.78-.52s.13-.1.26-.18l.13-.09h.15l.37-.21a2,2,0,0,1,.84-.32l.3-.12a4,4,0,0,1,.76-.22l.69-.19.33-.25a3,3,0,0,1,1-.55l1.16-1h.7a6.06,6.06,0,0,0,1.52-.85l-1.37-.24h-2.2c-6.15,0-13.65,1.4-22.92,4.28-.22.06-.45.1-.67.14a2.68,2.68,0,0,0-1.4.54l-.67.61v.45a2.47,2.47,0,0,0,.88,1.62c.14.16.29.32.42.49l.69.94c.22.12.49.29.78.47a12.08,12.08,0,0,0,1.26.75,2.71,2.71,0,0,0,1.18-.58A3.54,3.54,0,0,1,148.9,32l.7-.12.5-.44.55-.33a5.91,5.91,0,0,1,.69-.42l.43-.25h1.17v.5a5.26,5.26,0,0,1-1.22,2.88,10.25,10.25,0,0,0-.78,1.24l-.23.85a10.51,10.51,0,0,1-1,1.8c-.2.34-.42.68-.62,1.06a11.09,11.09,0,0,0-.78,1.68,8.59,8.59,0,0,1-1.29,2.44,2,2,0,0,1-1.8,1.19l-.51.06-1,.12a5,5,0,0,1-.59.63c-.11.11-.27.26-.36.37.09.13.25.33.38.49.64.8,1.51,1.89,1.51,2.8a6.2,6.2,0,0,1-.23,1.14,7.14,7.14,0,0,0-.17.7v.5H144a2.1,2.1,0,0,0-.1.37l0,.19a5.57,5.57,0,0,1-.33.65l-.1.16v1.08a5.49,5.49,0,0,1-.25,1.09c-.08.31-.21.78-.22.89v.44l-.33,2.32v1.31a4.09,4.09,0,0,0,.89,3.17l.08.08A3.56,3.56,0,0,0,144.42,63.3Z"/><path class="cls-1" d="M176.26,50.15c.07-.33-.6-.33-.73-.6a5.35,5.35,0,0,1-1.21-3.29c0-1.21,2.48-1.35,3.15-1.62l.14-.2a2,2,0,0,0,.33-.47V43.7c0-.33.48-1.88.54-2.49.74-2.28,1.28-5,2.22-7.46,0-.13.4-.74.4-.87a9,9,0,0,0,.21-1c.26-.54.74-.94,1.07-1.48a9.84,9.84,0,0,1,.48-1.75c0-.13.66-.87.66-1a21.56,21.56,0,0,0,1.35-3.9c.14-.4.14-.13.33-.6a8.09,8.09,0,0,0,1.08-1.42l.13-.67c.08-.13.81-.13,1-.13a19.87,19.87,0,0,1,5,.8l.67.21a4.1,4.1,0,0,1,2.09,3.29c0,.27-.14.61-.14,1.15l2,2a2.61,2.61,0,0,1,.26.88v.33a19.84,19.84,0,0,0,0,3v.27c0,.4.13,1.68.13,1.74l.21.34c.13,2.22.47,5,.74,7.26a1.39,1.39,0,0,0,.13.41,2.67,2.67,0,0,0,.47.06c2,.2,3.1,0,5,.54l.2.14.81.47A17.11,17.11,0,0,1,206.65,45l-1.21.07a10,10,0,0,1-1.47.06h-.07c-.27,0-2.82.14-4.24.27a1.19,1.19,0,0,0-.94.47c.2,1.15.2,1.55.41,2.62v7.6c0,.2-.21.74-.21.88l-.2.33-.14.54a1.29,1.29,0,0,1-.13.4l-.2.14c-.4.4-.27,1.21-.4,1.75l-.14.4c0,.13-.13.74-.13.94a6.37,6.37,0,0,1-.6,1.08l-.41.33c-.14,0-.67.81-.88.81l-.2.13c-1.27.14-1.07,1.21-2.28,1.21h-.27c-1.08-.06-.81-.74-.54-.93,0,0,.27-.28.47-.28l.2-.13c1.62-1.14,1.15-2.56,1.35-4.24l.14-.53V57.82l.13-.34a3.59,3.59,0,0,0,.2-1.41c0-.8-.2-1.54-.2-2.48,0-.21.2-.27.2-.61s-.2-.33-.2-.6.2-.34.2-.41a.39.39,0,0,0-.2-.4V48.14c-.27-.74,0-1.41-.27-2h-1.55c-.87,0-2.35.61-3.76.61-.27,0-1.15.2-1.21.2h-.81l-.34.13a16.22,16.22,0,0,0-3.23,1.48c0,.34-.13.67-.13,1l-.13.87a9.6,9.6,0,0,0-.54,1.55v.2c0,.21-.27,1.15-.27,1.21l-.27.81c0,1.08-1,1.35-1,1.88v.47c-.2.14-.07.41-.07.41l-.4.53-.13.74a9.37,9.37,0,0,1-.94,2.42c-.14.27-.27.14-.88.14l.2.47-.33.2-.2.54-.14.13-.67.14v.6c0,.2-.47.67-.54.81a.29.29,0,0,1,.2.27c0,.14-.33.74-.6.74a1.13,1.13,0,0,1-1-.74,4.81,4.81,0,0,1-.4-.74,8.55,8.55,0,0,1-.34-1.75,22.38,22.38,0,0,1,.34-2.55C175.26,58.56,175.59,54.06,176.26,50.15Zm9.42-9.07a6.46,6.46,0,0,0-.27,1.61h1.48l1.21-.06.54.06,2.21-.06h3v-.81l-1.14-7.47a16,16,0,0,0-.74-2l-.13-.47c0-.07-.27-.54-.27-.67h-2l-.27.13c-.6,1.28-1.54,3.76-2.49,6.18-.26.34-.13.81-.13,1.08l-.13.07-.08.67Z"/><path class="cls-1" d="M193.21,65.51h-.27c-.87-.05-1.16-.43-1.25-.74a1.08,1.08,0,0,1,.42-1.1,1.29,1.29,0,0,1,.58-.34l.1-.07c1-.72,1-1.54,1.06-2.67,0-.39,0-.79.07-1.22l.14-.53,0-1.2.13-.34a3,3,0,0,0,.17-1.23A10.25,10.25,0,0,0,194.3,55a9.82,9.82,0,0,1-.11-1.4.91.91,0,0,1,.15-.49c0-.06,0-.07,0-.12a1.07,1.07,0,0,1-.2-.6.89.89,0,0,1,.13-.46l-.15-.1,0-.25V48.22a3.41,3.41,0,0,1-.14-1.14c0-.17,0-.32,0-.46h-1.17a6.51,6.51,0,0,0-1.33.24,10.94,10.94,0,0,1-2.43.37c-.13,0-.62.1-.83.14l-.38.06h-.72l-.24.1a6.73,6.73,0,0,1-.74.29,11.47,11.47,0,0,0-2.19,1l-.06.34a1.93,1.93,0,0,0-.06.41l-.14,1a1.12,1.12,0,0,1-.15.43,4.08,4.08,0,0,0-.39,1.13v.11a5.34,5.34,0,0,1-.2,1,1.54,1.54,0,0,0-.07.28l-.27.82a2.24,2.24,0,0,1-.77,1.55,1.65,1.65,0,0,0-.24.27v.72l-.06,0,.08.17-.52.67-.11.62a6.08,6.08,0,0,1-.67,1.87c-.1.22-.21.43-.3.66a.79.79,0,0,1-.57.46l.06.15-.56.34-.26.56-.24.23-.41.09v.19a1.32,1.32,0,0,1-.4.8.67.67,0,0,1,.06.28c0,.35-.49,1.24-1.1,1.24a1.62,1.62,0,0,1-1.45-1,4.12,4.12,0,0,1-.42-.78,8.8,8.8,0,0,1-.38-1.95,7.92,7.92,0,0,1,.14-1.32c.06-.33.13-.74.2-1.3,0-.27.31-4.61,1-8.56h0a1.23,1.23,0,0,1-.6-.42,5.89,5.89,0,0,1-1.3-3.58c0-1.32,1.69-1.68,2.81-1.92l.53-.12,0-.06a2.19,2.19,0,0,0,.24-.32V43.7a7.56,7.56,0,0,1,.26-1.26,10.26,10.26,0,0,0,.28-1.28l0-.1c.29-.91.55-1.87.82-2.89.41-1.5.83-3.05,1.39-4.54a2.27,2.27,0,0,1,.24-.55c.06-.11.12-.21.15-.28a2.43,2.43,0,0,1,.08-.36,2.65,2.65,0,0,0,.12-.57v-.12l.05-.1a5,5,0,0,1,.65-.93,5.47,5.47,0,0,0,.41-.54c.06-.22.1-.42.14-.61a4.39,4.39,0,0,1,.32-1.1,2.14,2.14,0,0,1,.41-.63,3.43,3.43,0,0,0,.23-.32v0l.07-.11A9.7,9.7,0,0,0,184,25c.13-.47.26-1,.43-1.43a1.05,1.05,0,0,1,.26-.47.81.81,0,0,0,.08-.17l.07-.11.32-.38a10.36,10.36,0,0,0,.68-.86h0l.16-.77c.18-.34.61-.4,1.46-.4a20.54,20.54,0,0,1,5.13.83l.76.24a4.65,4.65,0,0,1,2.34,3.73,3,3,0,0,1-.06.47,3.06,3.06,0,0,0-.07.48l1.89,2a3.16,3.16,0,0,1,.32,1.1v.33a1.53,1.53,0,0,1,0,.18,17.85,17.85,0,0,0,0,2.81v.31c0,.28.07,1,.11,1.39,0,.07,0,.14,0,.2l.21.34v.12c.13,2.15.45,4.86.73,7.23v0h.1c.72.07,1.28.09,1.82.11a12.67,12.67,0,0,1,3.3.45l.15.07.19.14.78.44a8.66,8.66,0,0,1,1.15.73c.21.16.42.31.61.43l1.32.83-3,.18a10.23,10.23,0,0,1-1.3,0c-.3,0-2.83.13-4.26.27a.9.9,0,0,0-.45.13c.07.43.11.75.15,1.07s.1.75.21,1.3v7.69a2.64,2.64,0,0,1-.14.65c0,.11-.06.2-.07.26v.14l-.23.36-.11.42a1.71,1.71,0,0,1-.18.54l-.06.12-.31.21a2.54,2.54,0,0,0-.11.76,4.76,4.76,0,0,1-.09.7l-.12.39c0,.09,0,.22-.06.36a4.49,4.49,0,0,0-.07.47,4.74,4.74,0,0,1-.74,1.42l-.6.49-.15.17a2,2,0,0,1-.69.61l-.24.15h-.12a1.17,1.17,0,0,0-.84.49A1.84,1.84,0,0,1,193.21,65.51Zm-.49-1a1.11,1.11,0,0,0,.25,0h.24a.87.87,0,0,0,.76-.4,2.12,2.12,0,0,1,1.34-.79l.25-.15a3.71,3.71,0,0,0,.27-.29,2,2,0,0,1,.48-.46l.35-.28c0-.06.33-.6.42-.79s0-.35.08-.54a1.73,1.73,0,0,0,.05-.31l0-.14.13-.41a3,3,0,0,0,0-.49A2.23,2.23,0,0,1,197.9,58l.15-.1,0-.11.2-.77.15-.24c0-.09.05-.19.09-.33s.09-.32.1-.39V48.47c-.1-.47-.15-.86-.21-1.26s-.1-.73-.19-1.27l0-.19.09-.16a1.67,1.67,0,0,1,1.37-.71c1.39-.13,4-.27,4.24-.27a9.34,9.34,0,0,0,1.27,0h0a2.71,2.71,0,0,0-.47-.27l-1-.61a11.76,11.76,0,0,0-3-.39c-.55,0-1.14,0-1.83-.11a2,2,0,0,1-.54-.08l-.22,0-.1-.21a1.56,1.56,0,0,1-.19-.63c-.28-2.28-.6-4.95-.73-7.11l-.22-.35,0-.4c0-.57-.11-1.2-.11-1.48v-.27a18.83,18.83,0,0,1,0-2.92v-.44a2.07,2.07,0,0,0-.18-.59l-2-2.1v-.2a4.23,4.23,0,0,1,.1-.86,1.81,1.81,0,0,0,0-.29,3.61,3.61,0,0,0-1.79-2.83l-.61-.19a19.6,19.6,0,0,0-4.83-.78c-.29,0-.47,0-.58,0l-.08.38c0,.19-.18.46-.89,1.28-.09.12-.18.22-.24.29a1.39,1.39,0,0,1-.27.43h0l0,.08c-.16.46-.28.92-.41,1.38a11,11,0,0,1-.94,2.55,2.74,2.74,0,0,1-.41.63c-.08.11-.17.22-.22.3h0l-.06.1a3.62,3.62,0,0,0-.26.9,5,5,0,0,1-.18.77l-.05.13a7.55,7.55,0,0,1-.53.7,4.51,4.51,0,0,0-.48.65,5,5,0,0,1-.14.69,1.89,1.89,0,0,0-.06.21,1.48,1.48,0,0,1-.26.64c-.05.1-.11.2-.14.27l0,.11c-.55,1.46-1,3-1.37,4.5-.28,1-.53,2-.83,2.89a12,12,0,0,1-.3,1.36c-.09.38-.22.9-.23,1v.39l-.05.1a2.36,2.36,0,0,1-.43.6l-.16.26-.14.06a5.18,5.18,0,0,1-.83.21c-.71.15-2,.43-2,.94a4.85,4.85,0,0,0,1.1,3l.06.09s.06,0,.12,0c.21.08.78.32.67.9-.67,3.87-1,8.34-1,8.66-.09.63-.15,1.05-.21,1.39a7.81,7.81,0,0,0-.13,1.16,8.54,8.54,0,0,0,.3,1.56,4.1,4.1,0,0,0,.31.59l.1.1,0,.12a.52.52,0,0,0,.17.21l.31-.59a1.84,1.84,0,0,1,.22-.31,3.85,3.85,0,0,0,.26-.34v-.94l.89-.18.21-.55.11-.07-.33-.77h.76l.47,0h0c.08-.18.17-.37.27-.56a5.12,5.12,0,0,0,.57-1.59l.16-.87.34-.45a.77.77,0,0,1,.1-.47v-.29a1.39,1.39,0,0,1,.52-1,1.23,1.23,0,0,0,.49-.93l0-.16.25-.76c0-.07,0-.17.09-.35s.16-.65.17-.76V52a5.16,5.16,0,0,1,.47-1.46l.08-.19.13-.85A2.33,2.33,0,0,1,183,49a2.87,2.87,0,0,0,.05-.41v-.22l.17-.15a9.41,9.41,0,0,1,2.66-1.29,5.34,5.34,0,0,0,.65-.25l.59-.2h.81l.18,0a6.56,6.56,0,0,1,1-.16,10.1,10.1,0,0,0,2.2-.35,7.42,7.42,0,0,1,1.56-.26h1.87l.14.3a2.85,2.85,0,0,1,.17,1.16,2.42,2.42,0,0,0,.11.89l0,.17v3.21a.9.9,0,0,1,.2.62.65.65,0,0,1-.17.41,1.15,1.15,0,0,1,0,1.25,10.36,10.36,0,0,0,.1,1.24,9.1,9.1,0,0,1,.1,1.2,4.18,4.18,0,0,1-.22,1.56l-.11.28L195,59l-.14.54c0,.32,0,.7-.05,1.06a3.71,3.71,0,0,1-1.49,3.46l-.33.22h-.16s-.06.07-.11.13Zm-4.08-21.29-.6-.07a3.14,3.14,0,0,1-.41,0l-.74,0h-2v-.5a7.76,7.76,0,0,1,.31-1.82l.71-1.67.09-.87.07,0a1.55,1.55,0,0,1,.22-1l.44-1.12c.78-2,1.53-3.95,2-5l.07-.16.53-.26H192v.5a1.47,1.47,0,0,1,.12.22,1.89,1.89,0,0,1,.14.34l.12.44a12.37,12.37,0,0,1,.76,2.15l1.13,7.39v1.39h-3.46l-1.09,0Zm-.54-1.06.6.07,1,0,1.12,0h2.46v-.31l-1.13-7.39a17.07,17.07,0,0,0-.7-1.87l-.17-.58a.81.81,0,0,1-.06-.13,1,1,0,0,0-.08-.15h-1.55c-.49,1.08-1.2,2.89-1.94,4.81l-.53,1.31a.79.79,0,0,0-.05.52,2.5,2.5,0,0,1,0,.25v.31L187,39l-.08.55-.76,1.8a5.37,5.37,0,0,0-.15.86h.93l.67,0Z"/><path class="cls-1" d="M207.34,39.6A35.29,35.29,0,0,1,210.77,33a3,3,0,0,0,1-1.55c0-.13.81-.74.81-.94,0,0,.47-.4.47-.6,2.28-3.77,11.36-7.6,15.6-7.6a10.11,10.11,0,0,1,5.78,1.62,4.77,4.77,0,0,1,2.08,1.74,8.31,8.31,0,0,1,.61,3.1c0,1.74-1.95,2.15-3.43,2.35h-.61c-1.54,0-1.74-1.41-2.28-2.56-.2-.4-.81-.4-1.15-.53h-1a8.8,8.8,0,0,0-4,1.14l-.61.13-.39.2a40.14,40.14,0,0,0-6.93,6.6c0,.19-.67,1.13-.67,1.34l-.21.2a2.35,2.35,0,0,0-.47.54l-.2.81a34.34,34.34,0,0,0-1.68,4.63c0,.21-.2.95-.2,1.15-.2.94-.67,1.61-.87,2.48v6.12c0,.21.2,1.28.2,1.42a5.13,5.13,0,0,0,2.35,1.61c2.15,0,3.56-1.88,5.45-2.69l.73-.4c3.17-1.35,6.13-4,9.36-5.72l1.13-.6.55-.41a13.7,13.7,0,0,1,2.15-1.28A17.55,17.55,0,0,1,236,44.1a3.51,3.51,0,0,1,1.54-.6h.2c-.81,1.34-1.41,3.29-2.55,4.5l-.6.41a2.1,2.1,0,0,1-.74.4c-.41.21-2.09,2.55-7.94,7.8L224.42,58a6.82,6.82,0,0,1-1.21,1.08c-.27.2-1.61.74-1.81.94s-.81.47-.81.47c-.2,0-1.41.6-1.55.6s-.81.61-1,.61l-.4.2-.14.34a10,10,0,0,1-3.49.4,8.43,8.43,0,0,1-2.69-.74H211c-1.94-.4-3.15-1.88-4.23-3.49-.61-.61-.61-1.75-.81-2.49a6,6,0,0,1-.4-1.75v-7.6C206.13,44.17,206.34,42,207.34,39.6Z"/><path class="cls-1" d="M214,63.16a5.93,5.93,0,0,1-2.11-.49l-.66-.25h-.36c-2.11-.44-3.44-2-4.55-3.71a3.61,3.61,0,0,1-.74-2c0-.21-.07-.41-.11-.59a6.18,6.18,0,0,1-.44-1.89V46.47c.19-.77.34-1.51.49-2.24a23.86,23.86,0,0,1,1.35-4.82,36.06,36.06,0,0,1,3.47-6.66l.07-.09.15-.16a2.21,2.21,0,0,0,.72-1.16c.05-.21.22-.37.48-.62l.32-.32v-.11l.18-.15a2,2,0,0,0,.29-.3v-.06l.07-.12c2.45-4,11.79-7.84,16-7.84a10.52,10.52,0,0,1,6.05,1.7A5.1,5.1,0,0,1,237,25.47a8.86,8.86,0,0,1,.65,3.31c0,2.32-2.71,2.69-3.86,2.84h-.68c-1.59,0-2.08-1.23-2.47-2.21-.08-.21-.17-.43-.26-.63s-.31-.14-.48-.18l-.3-.07h-.92a7.59,7.59,0,0,0-3.47.93l-.46.2-.55.12-.28.14-.46.37a37.79,37.79,0,0,0-6.29,6,4.72,4.72,0,0,1-.36.68,5.24,5.24,0,0,0-.29.52v.2l-.13.06-.2.2a1.72,1.72,0,0,0-.36.39l-.22.82a29,29,0,0,0-1.4,3.78l-.23.74c0,.13-.06.32-.11.58s-.08.38-.09.47v.1a6.66,6.66,0,0,1-.49,1.41,8.49,8.49,0,0,0-.37,1v6.06c0,.12.06.45.11.75s.06.39.07.51A5.69,5.69,0,0,0,215,55.91a5.72,5.72,0,0,0,3.17-1.42,11.64,11.64,0,0,1,2-1.23l.7-.38a30.4,30.4,0,0,0,5.1-3.05,42,42,0,0,1,4.25-2.67l1.14-.61.41-.31a7.46,7.46,0,0,1,1.8-1.11l.37-.19a5.24,5.24,0,0,1,1.15-.84c.23-.15.45-.28.53-.35l.12-.09.26-.14a3,3,0,0,1,1.51-.52h1.09l-.46.75c-.27.46-.53,1-.79,1.57a11.71,11.71,0,0,1-1.83,3l-.08.07-.55.36a2.45,2.45,0,0,1-.91.51s-.32.36-.65.71a92.1,92.1,0,0,1-7.12,7l-1.46,1.4a6.68,6.68,0,0,1-1.34,1.17,5.34,5.34,0,0,1-.84.42c-.28.14-.75.36-.85.44l-.13.08c-.25.13-.75.44-.75.44l-.13.08h-.14l-.71.31a4.8,4.8,0,0,1-.74.29,2.37,2.37,0,0,0-.3.21,2,2,0,0,1-.65.38l-.17.09-.13.33-.17.09A9.77,9.77,0,0,1,214,63.16Zm-3-1.74.43,0c.28.09.54.19.78.28a5,5,0,0,0,1.76.43,11.71,11.71,0,0,0,3.11-.28l.13-.32.71-.34c.08,0,.2-.14.29-.2a1.46,1.46,0,0,1,.8-.41l.44-.21a5.87,5.87,0,0,1,.93-.36c.15-.1.48-.3.71-.42a6.57,6.57,0,0,1,1-.55c.26-.12.65-.31.74-.37a6.17,6.17,0,0,0,1.14-1l1.5-1.43a95.56,95.56,0,0,0,7.07-6.92c.57-.63.78-.86,1-1a2.33,2.33,0,0,0,.57-.27l.12-.11.55-.37a10.87,10.87,0,0,0,1.61-2.73c.11-.22.21-.44.31-.65l-.25.14-.25.14a5.06,5.06,0,0,1-.63.42,8.78,8.78,0,0,0-.91.64l-.06.12-.08,0-.53.29a12.63,12.63,0,0,0-1.5.86l-.1.11-.55.41-1.2.64a41.23,41.23,0,0,0-4.15,2.62,31.74,31.74,0,0,1-5.24,3.12l-.7.38a11.31,11.31,0,0,0-1.9,1.15,6.49,6.49,0,0,1-3.78,1.6A5.21,5.21,0,0,1,212.13,55l0-.2c0-.06,0-.28-.08-.51a8.22,8.22,0,0,1-.12-.91V47.15a8.32,8.32,0,0,1,.44-1.25,6.73,6.73,0,0,0,.43-1.19,3.38,3.38,0,0,1,.1-.61,3.63,3.63,0,0,0,.09-.47l0-.15.26-.79a28.71,28.71,0,0,1,1.43-3.86l.25-.9a2.42,2.42,0,0,1,.59-.68l.06,0a4.71,4.71,0,0,1,.36-.69,4.48,4.48,0,0,0,.27-.5v-.18l.11,0a39.54,39.54,0,0,1,6.52-6.28c.21-.16.36-.27.43-.34l.13-.09.52-.25.55-.12.31-.14a8.51,8.51,0,0,1,3.89-1l1.19,0a1.38,1.38,0,0,0,.26.07,1.57,1.57,0,0,1,1.15.71c.11.23.2.47.29.7.4,1,.67,1.58,1.54,1.58h.61c2.06-.29,2.93-.83,2.93-1.85a7.89,7.89,0,0,0-.54-2.84,4.61,4.61,0,0,0-1.89-1.56,9.62,9.62,0,0,0-5.54-1.56c-4.3,0-12.93,3.82-15.12,7.28a1.66,1.66,0,0,1-.52.71,2.78,2.78,0,0,1-.56.63c-.08.09-.17.16-.22.22a3.28,3.28,0,0,1-1,1.55l-.11.12a35,35,0,0,0-3.36,6.44v0a23,23,0,0,0-1.29,4.63c-.14.73-.29,1.46-.48,2.22v7.54a5.25,5.25,0,0,0,.32,1.48l.06.14a6.9,6.9,0,0,1,.15.74,3.05,3.05,0,0,0,.53,1.52C208.29,59.85,209.39,61.07,211,61.42Z"/><path class="cls-1" d="M240.85,58l.33-2.28v-.47c0-.2.47-1.75.47-2V52.17c0-.13.28-.47.48-.94,0-.2.2-.87.33-.87,0-.21.4-1.55.4-1.82,0-1.14-1.94-3-1.94-3.29s1-1,1.21-1.48c.33,0,1.68-.2,1.81-.2a1.6,1.6,0,0,0,1.42-1c1-1.21,1.21-2.69,2-4,.54-1,1.14-1.76,1.55-2.76l.27-1c.67-1.34,1.95-2.48,1.95-3.89h-.54l-.34.2a5.47,5.47,0,0,0-.67.4l-.47.27-.61.54-.8.13c-.81.2-1.55,1.21-2.56,1.21-.53-.2-1.68-1-2.29-1.34l-.73-1c-.61-.74-1.42-1.34-1.42-2.42v-.67l.81-.74a4.66,4.66,0,0,1,2.29-.81c6.92-2.15,15.46-4.3,23.06-4.3h2.28l2,.34v.19c0,.68-1.62,1.35-2.09,1.55h-.6l-1.14,1c-.41,0-1,.61-1.42.8l-.74.21c-.2,0-1,.34-1.14.34s-1,.53-1.21.53a1.91,1.91,0,0,1-.54.27l-1.75.54-1-.2a4.54,4.54,0,0,0-.8.2c-.34.2-.14.87-.61,1s-.53,0-.53.54c0,.2-.21,1.54-.21,1.74A31,31,0,0,1,256,35c-.81,1.75-1.34,3.49-2.36,5.25v.6h.81l.13.27a10.39,10.39,0,0,1,1.42-.47l.81-.2c.27,0,.74-.47.94-.47l.87-.34c.14,0,1.88-.41,2-.41a50.36,50.36,0,0,1,7.4-1.34h1.13c.81,0,1.55-.4,2.56-.4h.2c-.6.61-1.21.4-2.42,1.14h-.34l-.33.27-.6.54c-1.62,1.34-2,1-3.5,1.75-.2,0-.61.33-.74.33l-1.21.81-.94.54-1.21,1.61-1.55.61-1.88.67h-.4a1.68,1.68,0,0,0-.61.27l-.2.4-.13.2c-.82.34-.14.41-1.15.41l-2.82,1.21s-.61.33-.61.6l-1.55.13c-.67.88-.4.68-.73,1.82a27.1,27.1,0,0,0-1.75,5.85v.94c.2,0,1.07-.07,1.34-.07,1.75-.13,1.62-.26,3.16-1.07.14-.2,1.69-.81,1.88-1,1.75-.87,3.1-1.95,4.91-2.69,2.69-1.35,5.58-2,8.47-3,.94-.13,2-.87,2.9-.87l-2.15,1.88c-.34.6-.34.2-.94.6l-.61.61c-.74.54-1.75,1-2.49,1.48-.2,0-.81.88-1,.88a2.63,2.63,0,0,1-.74.33,19.29,19.29,0,0,0-3.29,2.09l-.14.2-.2.8-.47.21c-.2.13-.87.8-1.14.8l-.4.34h-.55a22.93,22.93,0,0,0-3.08,1.75c-1.15.6-2.29.94-3.5,1.54a16.62,16.62,0,0,1-6,1.41H243a4,4,0,0,1-1.14-.94,4.56,4.56,0,0,1-1-3.49Z"/><path class="cls-1" d="M243.2,64.3l-.39,0a4,4,0,0,1-1.21-.94l-.1-.1a5.1,5.1,0,0,1-1.15-3.85V58l.34-2.28v-.4a6.21,6.21,0,0,1,.26-1.12c.08-.3.2-.76.22-.86V52.17a1.18,1.18,0,0,1,.24-.6,5.15,5.15,0,0,0,.25-.48,2.32,2.32,0,0,1,.36-1c0-.15.08-.35.16-.67s.2-.79.2-.9c0-.56-.8-1.57-1.28-2.17s-.66-.83-.66-1.12.31-.7.72-1.09a2.82,2.82,0,0,0,.52-.58l.13-.31h.34c.17,0,.8-.08,1.17-.13l.64-.07c.34,0,.63-.13,1-.76a7.82,7.82,0,0,0,1.19-2.24,11.52,11.52,0,0,1,.83-1.8c.21-.38.43-.74.65-1.09a10.76,10.76,0,0,0,.87-1.6l.25-.89a9.76,9.76,0,0,1,.88-1.45,7.25,7.25,0,0,0,.95-1.69h0a5.94,5.94,0,0,0-.63.37l-.52.3-.63.58-1,.15a3.67,3.67,0,0,0-.8.46,3.19,3.19,0,0,1-1.84.76l-.17,0a10,10,0,0,1-1.54-.87c-.3-.2-.6-.38-.82-.5l-.16-.14-.74-1-.37-.43a3.33,3.33,0,0,1-1.14-2.29V28l1-.89a3.38,3.38,0,0,1,1.91-.8c.2,0,.39-.07.57-.12,9.36-2.91,17-4.32,23.2-4.32h2.28l2.46.41v.62c0,.87-1.19,1.5-2.35,2L269,25h-.42l-1.13,1h-.19a2.49,2.49,0,0,0-.63.38,3.62,3.62,0,0,1-.57.37l-1,.26a4.91,4.91,0,0,0-.51.17,2.17,2.17,0,0,1-.63.17s-.23.13-.37.21a4.12,4.12,0,0,1-.65.3,1.73,1.73,0,0,1-.63.28l-1.82.56-1.06-.21a4.19,4.19,0,0,0-.51.14,1.15,1.15,0,0,1,0,.14,1.11,1.11,0,0,1-.66.89,1.07,1.07,0,0,1-.23.1c0,.13-.06.52-.11.92s-.09.7-.1.81a27.6,27.6,0,0,1-1.39,3.7c-.29.62-.54,1.25-.79,1.87a27,27,0,0,1-1.5,3.27h.6l.07.14a6,6,0,0,1,1.08-.34l.9-.2.25-.18a1.84,1.84,0,0,1,.56-.28l1-.35.9-.19c.67-.15.92-.2,1-.21A49.1,49.1,0,0,1,268,37.35h1.17a4.34,4.34,0,0,0,1-.17,6.24,6.24,0,0,1,1.54-.23h1.41l-.85.85a2.71,2.71,0,0,1-1.23.66,4.86,4.86,0,0,0-1.29.56l-.12.07h-.3l-.78.68a5.89,5.89,0,0,1-2.39,1.35,10.67,10.67,0,0,0-1.22.48l-.22,0s-.11.08-.19.12a1.94,1.94,0,0,1-.35.18l-1.13.75-.88.51-1.24,1.64-1.68.66-2.06.71h-.4l-.23.12-.38.65-.14.06c-.23.1-.27.14-.28.16-.23.27-.47.28-1,.29l-2.73,1.16a2.43,2.43,0,0,0-.3.24v.37l-1.78.15a1.26,1.26,0,0,0-.33.69c0,.17-.08.41-.19.79a26.73,26.73,0,0,0-1.73,5.77V57h.06l.78,0a3.69,3.69,0,0,0,2.17-.6l.69-.38a5.28,5.28,0,0,1,1.07-.58c.27-.13.69-.32.78-.39l.11-.08c.72-.36,1.38-.76,2-1.15a21.11,21.11,0,0,1,2.92-1.55A35.46,35.46,0,0,1,264,50.19c1-.28,1.92-.57,2.88-.91a5.63,5.63,0,0,0,1.26-.41,4.84,4.84,0,0,1,1.8-.49h1.33l-3.09,2.7a1,1,0,0,1-.74.56.83.83,0,0,0-.32.14l-.53.55a14.11,14.11,0,0,1-1.59,1c-.34.2-.68.38-1,.57l-.14.08c-.08.07-.19.2-.27.28a1.93,1.93,0,0,1-.68.56,2.58,2.58,0,0,1-.79.36,16.34,16.34,0,0,0-2.75,1.72l-.35.29-.25,1-.69.31-.16.15a2.94,2.94,0,0,1-1,.65l-.44.38h-.64a8.93,8.93,0,0,0-1.68.93c-.4.25-.8.52-1.26.76-.63.33-1.27.59-1.88.84s-1.08.43-1.63.71A17,17,0,0,1,243.2,64.3Zm-.09-1h.09A16.14,16.14,0,0,0,249,61.94c.58-.29,1.15-.52,1.69-.74a16,16,0,0,0,1.79-.8,13.15,13.15,0,0,0,1.18-.71,9.1,9.1,0,0,1,2-1.06l.16,0h.36l.4-.34h.19l.53-.45a2.25,2.25,0,0,1,.34-.27l.32-.14.21-.73.26-.33.38-.28a17.48,17.48,0,0,1,3-1.86l.2,0a4.51,4.51,0,0,0,.48-.26l.13-.07c.08-.07.19-.2.27-.28a2.05,2.05,0,0,1,.67-.57l1-.55a14.41,14.41,0,0,0,1.42-.86l.55-.56a1.74,1.74,0,0,1,.78-.35l.08-.14.11-.13.36-.32a4.35,4.35,0,0,1-.71.18c-.88.32-1.85.61-2.82.9a33.56,33.56,0,0,0-5.49,2,19.84,19.84,0,0,0-2.82,1.5c-.64.39-1.3.79-2,1.16a6.67,6.67,0,0,1-1,.51,6.41,6.41,0,0,0-.84.42l-.07.11H252l-.74.4a4.72,4.72,0,0,1-2.62.73l-.76,0-.62,0h-.5V56.61a27.24,27.24,0,0,1,1.78-6c.08-.3.13-.51.16-.67a2.35,2.35,0,0,1,.65-1.27l.13-.18,1.48-.12a2.23,2.23,0,0,1,.69-.57l3.07-1.27h.36a1.56,1.56,0,0,1,.45-.3l.05-.07.23-.48.11-.07a1.92,1.92,0,0,1,.89-.35h.31l3.2-1.2,1.28-1.62.94-.55L263.9,41l.12-.07a2,2,0,0,1,.56-.25,10.79,10.79,0,0,1,1.27-.49,5,5,0,0,0,2-1.16l.75-.66H268a50.3,50.3,0,0,0-7.29,1.33h-.11l-.91.2-1,.2-1,.35s-.06.08-.13.12a1.68,1.68,0,0,1-.74.35l-.77.18a4.56,4.56,0,0,0-1,.34,1.26,1.26,0,0,1-.5.15h-.31l-.13-.27h-1V40.07l.07-.11a26,26,0,0,0,1.52-3.29c.26-.64.52-1.28.81-1.92s1.25-3,1.31-3.33a8.08,8.08,0,0,1,.1-.9c.05-.35.09-.7.1-.81a.8.8,0,0,1,.64-.91l.14-.05.11-.05h0s0-.11,0-.18a1.16,1.16,0,0,1,.47-.78l.1,0a4.27,4.27,0,0,1,1-.23l1,.19,1.78-.52s.14-.1.26-.18l.13-.09h.15l.37-.21a2,2,0,0,1,.84-.32l.3-.12A4,4,0,0,1,265,26l.69-.19.33-.25a3.21,3.21,0,0,1,1-.55l1.17-1h.69a6.44,6.44,0,0,0,1.53-.85l-1.38-.24h-2.2c-6.15,0-13.64,1.4-22.92,4.28-.22.06-.44.1-.67.14a2.68,2.68,0,0,0-1.4.54l-.67.61v.45a2.47,2.47,0,0,0,.88,1.62,6.4,6.4,0,0,1,.42.49l.69.94c.22.12.5.3.78.48.43.27,1,.6,1.26.74a2.71,2.71,0,0,0,1.18-.58,3.64,3.64,0,0,1,1.17-.61l.7-.12.5-.44.55-.33c.26-.19.68-.41.69-.42l.43-.25h1.18v.5a5.27,5.27,0,0,1-1.23,2.88,11.65,11.65,0,0,0-.78,1.24l-.23.85a10.49,10.49,0,0,1-1,1.8c-.21.34-.42.68-.63,1.06a11,11,0,0,0-.77,1.68,8.62,8.62,0,0,1-1.3,2.44,2,2,0,0,1-1.8,1.19l-.51.06-1,.12a5,5,0,0,1-.59.63l-.36.37c.1.13.25.33.39.49.63.8,1.5,1.89,1.5,2.8a6.2,6.2,0,0,1-.23,1.14c-.08.3-.15.59-.17.7v.5h-.24a1.38,1.38,0,0,0-.09.37l0,.19c-.11.25-.24.47-.34.65l-.1.16v1.08a5.49,5.49,0,0,1-.25,1.09c-.08.31-.21.78-.22.89v.44l-.33,2.32v1.31a4.09,4.09,0,0,0,.89,3.17l.09.09A4,4,0,0,0,243.11,63.3Z"/><path class="cls-1" d="M299.9,58.89v-.67l-.07-.34a24.61,24.61,0,0,1-.47-4.1c.13-1.61.27-3.22.47-5V47.33c0-.41.34-2.35.34-2.69v-1a8.48,8.48,0,0,0,.13-.87c.21-.94.21-1.82.34-2.89l.2-.47V37.92l.41-.68c0-.13.13-1.07.13-1.21s.61-1.47.61-1.61.33-1.54.33-1.68l.14-.33a4.61,4.61,0,0,0,.26-1.42c0-.2.41-1,.41-1.14V28.64a25.78,25.78,0,0,0,.8-2.62c.81-1.35,1.62-3.3,3.37-3.3,1.07,0,2.08.81,3.15,1.08l1.76,1.81V28.5c-.28.14-.28.67-.47,1l-.55.48c0,.26.55.66.55.66l.74.68c.87.74.73,2.68.87,3.7l.13.33a3.26,3.26,0,0,0,.34.81c0,.2.34,1.07.34,1.41v.2l.4.47c0,.14.07,1,.07,1.15l1.07,5.37.14.34c.47-.34.47-1.08.8-1.48,0-.13.67-.67.67-.87,1.35-1.82,2.42-3.83,4-5.65l.13-.2c.94-1.08,1.62-2.22,2.56-3.23l4.5-4.77A16.73,16.73,0,0,0,330,27c0-.2.74-.61.74-.81C331,26,331.84,25,332,24.87c.27-.33.88-.74,1.21-1.07a6.32,6.32,0,0,0,.47-.67v-.54c.14-1,2.49-1.55,3.09-1.55a5.47,5.47,0,0,1,3.37.94c.26.14.13.14.13.61,0,1.54-1,2.08-1.48,3.43l-.13.4a2.32,2.32,0,0,1-.54,1.07,8.66,8.66,0,0,0-.94,2.89l-.14.74-.4.34c-.2.34,0,1.28-.2,1.61l-.27.61-.47,2a8.61,8.61,0,0,0-.87,2.42v.27l-.27.67-.47,1.55v.13l-.41,1.75v.8l-.33.48-.14,1-.33,2.89-.41.61a8,8,0,0,0-.33,2.15l-.47,1.75c0,.14-.14.87-.14,1a4.47,4.47,0,0,1-.4,1.88l-.34.54a5.6,5.6,0,0,1-.27,1.48c-.33.6-.47,1.41-.87,2-.13.48-.4.81-.61,1.35,0,.13-.13,1.48-.13,1.62s-.21.74-.21.94l-.13-.2a37.12,37.12,0,0,0-1-4.58c0-.2-.14-1.48-.14-1.68s-.2-.94-.2-1.14v-6a13.5,13.5,0,0,1,.34-1.89l.19-1.08a73.85,73.85,0,0,1,1.76-9.68,35.84,35.84,0,0,1,1.21-3.89l.06-.34a7.36,7.36,0,0,1,.2-.81l-.2-.4A10.66,10.66,0,0,1,328.88,34l-.34.55-.81,1.14-1,1.07-1.14,1.62-.34.67-.68.67-.13.54L323.1,43a.74.74,0,0,0-.47.54l-1.48,3.42-.54.95L319.26,51c0,.13-.2.87-.2.94l-.13.67v1c0,.13-.27.87-.27,1.08l-.4.47v.6c0,.14-.34,1.08-.34,1.28-.34,1.41-.34,2.15-1.82,2.75H315a7.19,7.19,0,0,1-3.22-.74l-.41-.33a20.61,20.61,0,0,1-1.48-5.45,20.14,20.14,0,0,1-.74-3.5c-.13-.66-.74-3.36-.74-3.76,0-.2-.13-1.61-.13-1.75a9.83,9.83,0,0,0-.34-1.74l-.27-.27a1.29,1.29,0,0,0-.54,1l-1.54,9c-.2.73-.61,1.34-.81,2.15-.13.6-.67,2.42-.67,2.62s-.14,1.68-.14,2.35-.13,1.89-.13,2.63v.74l.27,1c-.81.34,0,1.15-.81,1.15h-.13c-.41-.47-.67-1-1.14-1.28A21.9,21.9,0,0,1,299.9,58.89Z"/><path class="cls-1" d="M303.26,65.45h-.36l-.15-.18a5.85,5.85,0,0,1-.38-.49,2.35,2.35,0,0,0-.64-.68l-.12-.07-.3-.58a19.81,19.81,0,0,1-1.9-4.44v-.79l-.06-.24a24.87,24.87,0,0,1-.48-4.2c.13-1.59.27-3.25.48-5V47.33a14.94,14.94,0,0,1,.19-1.53c.06-.43.15-1,.15-1.16v-1c.07-.39.13-.78.13-.87l0-.11a13.54,13.54,0,0,0,.21-1.71c0-.36.06-.73.11-1.13l0-.14.16-.38V37.78l.42-.69c0-.14,0-.33.06-.52s.05-.47.06-.54a3.59,3.59,0,0,1,.39-1.13c.1-.24.2-.47.23-.57a5.74,5.74,0,0,1,.19-1c.06-.29.12-.54.13-.63l0-.16.13-.33a1.36,1.36,0,0,0,.16-.64,6.53,6.53,0,0,1,.08-.68,2.66,2.66,0,0,1,.27-.77c.06-.15.12-.28.14-.36V28.14h.18c.11-.32.26-.9.36-1.28.15-.56.24-.89.3-1s.26-.45.37-.66c.74-1.31,1.66-3,3.46-3a5,5,0,0,1,2.1.63,6.23,6.23,0,0,0,1.18.46l.14,0,2,2.06v3.4l-.28.14a1.71,1.71,0,0,1,0,.24,2.45,2.45,0,0,1-.22.58l-.11.12-.22.2.19.16.78.71c.82.69.91,2.1,1,3.22,0,.27,0,.51.05.72l.15.46s.15.33.27.56l.07.12v.13c0,.06.06.22.11.4a3.88,3.88,0,0,1,.23,1v0l.4.47v.18c0,.07,0,.3,0,.54s0,.53,0,.61l.87,4.34a2.27,2.27,0,0,1,.19-.34,2.05,2.05,0,0,1,.38-.47l.24-.28v-.06l.1-.13c.5-.67.95-1.36,1.43-2.09A30.23,30.23,0,0,1,321,36.78l.08-.15c.47-.54.85-1.05,1.21-1.54a18.82,18.82,0,0,1,1.4-1.75l4.51-4.78a11.08,11.08,0,0,0,1-1.33l.34-.49a1.7,1.7,0,0,1,.51-.57l.19-.16v-.13l.23-.15c.13-.1.69-.73.91-1l.21-.23a4.91,4.91,0,0,1,.73-.67,5.56,5.56,0,0,0,.49-.41c.05-.06.19-.27.32-.47v-.39c.2-1.53,3-2.05,3.59-2.05a5.88,5.88,0,0,1,3.66,1,.63.63,0,0,1,.36.75,1.51,1.51,0,0,0,0,.26,4,4,0,0,1-.85,2.39,5.11,5.11,0,0,0-.65,1.2l-.12.36a3,3,0,0,1-.64,1.27,8.66,8.66,0,0,0-.84,2.67l-.17.91-.44.38a3.86,3.86,0,0,0,0,.5,2.08,2.08,0,0,1-.17,1.06l-.24.55L336,36.09a8,8,0,0,0-.75,2.11v.29l-.31.75-.45,1.61-.39,1.7v.9l-.35.5-.12.89-.35,3-.43.64a7.48,7.48,0,0,0-.29,1.94l0,.13-.46,1.71c0,.11,0,.3-.07.49a4.26,4.26,0,0,0-.06.44,5.13,5.13,0,0,1-.44,2.07l-.32.51c0,.08,0,.16,0,.24a4.65,4.65,0,0,1-.26,1.25,5,5,0,0,0-.36.87,5.89,5.89,0,0,1-.52,1.18,4.89,4.89,0,0,1-.33.73q-.12.23-.24.51c0,.16,0,.44-.07.73s-.06.7-.06.78a2.64,2.64,0,0,1-.12.59,2.67,2.67,0,0,0-.09.36l-.11,1.48-1-1.53,0-.12a14.19,14.19,0,0,0-.54-2.7c-.16-.56-.32-1.15-.45-1.82,0-.19-.05-.55-.08-.9s-.07-.77-.07-.88,0-.2-.08-.37a4.4,4.4,0,0,1-.12-.77v-6a13.71,13.71,0,0,1,.36-2.05l.18-1A72.33,72.33,0,0,1,329,36.65l.26-.93c.2-.7.38-1.38.62-2.09a4.73,4.73,0,0,1-.58.64h0l-.33.54L328.14,36l-1.05,1.13L326,38.68l-.4.73L325,40l-.14.52-1.49,3h-.19l-.1.12,0,.12-1.47,3.42-.56,1-1.3,3a4.48,4.48,0,0,1-.13.59c0,.12-.05.23-.06.28l-.14.71v.91a2.15,2.15,0,0,1-.14.59,4.71,4.71,0,0,0-.13.5v.16l-.39.48v.42a2.77,2.77,0,0,1-.17.67,5.75,5.75,0,0,0-.17.63l-.11.53a3,3,0,0,1-2,2.67l-.19,0H315a7.87,7.87,0,0,1-3.45-.79l-.09-.06-.53-.49a15.48,15.48,0,0,1-1.29-4.36c-.07-.4-.15-.81-.24-1.21a20.31,20.31,0,0,1-.74-3.55l-.14-.61a31.75,31.75,0,0,1-.61-3.21c0-.11,0-.56-.07-1s-.06-.71-.06-.78a5.1,5.1,0,0,0-.16-1l-1.54,9a7.42,7.42,0,0,1-.41,1.11,6.68,6.68,0,0,0-.41,1.08c-.05.25-.19.75-.32,1.25s-.31,1.15-.33,1.28,0,.29,0,.61c0,.53-.1,1.29-.1,1.71s0,.92-.07,1.41-.06.87-.06,1.22v.67l.37,1.37-.41.17a.26.26,0,0,0-.09.23A.83.83,0,0,1,303.26,65.45Zm-.89-2.13a3.71,3.71,0,0,1,.81.87h0a1.1,1.1,0,0,1,.31-.62l-.19-.78v-.74c0-.38,0-.83.07-1.3s.06-.93.06-1.33.06-1.23.1-1.78c0-.28,0-.5,0-.57a8.7,8.7,0,0,1,.36-1.51c.13-.48.26-1,.32-1.22a7.38,7.38,0,0,1,.46-1.26,6.49,6.49,0,0,0,.36-.92l1.53-9a1.72,1.72,0,0,1,.77-1.35l.33-.2.65.63,0,.13a10.42,10.42,0,0,1,.35,1.88c0,.07,0,.37.05.69s.08.95.08,1.06c0,.29.42,2.19.59,3l.14.66a19,19,0,0,0,.73,3.46c.1.45.18.86.25,1.27a14.81,14.81,0,0,0,1.15,4l.28.23a6.78,6.78,0,0,0,2.95.66h1c1-.42,1.09-.84,1.33-1.92l.09-.4a4.69,4.69,0,0,1,.22-.83c.05-.18.11-.35.12-.43V55l.43-.5a4.9,4.9,0,0,1,.15-.56c0-.14.08-.28.09-.35v-1l.14-.77a2.88,2.88,0,0,1,.08-.36,4.43,4.43,0,0,0,.11-.51l0-.17,1.35-3.16.56-1,1.43-3.32a1.3,1.3,0,0,1,.59-.78L324,40.1l.15-.62.72-.72.3-.6,1.18-1.67,1.05-1.14,1.23-1.84h.09a13,13,0,0,0,1.58-2.25V29.15l1.23,2.54-.06.19a6.58,6.58,0,0,0-.18.69l-.07.4a28.34,28.34,0,0,0-1,3l-.25.92a71.39,71.39,0,0,0-1.74,9.6l-.2,1.11a14.56,14.56,0,0,0-.33,1.81v6c0,.1.06.34.1.56a3.89,3.89,0,0,1,.1.58c0,.1,0,.44.06.79s.08.79.08.89c.11.54.27,1.11.42,1.66,0,.12.07.24.1.36a4.5,4.5,0,0,1,.31-.66,3.65,3.65,0,0,0,.27-.62l.06-.15a4.47,4.47,0,0,0,.45-1,6.3,6.3,0,0,1,.41-1,4.38,4.38,0,0,0,.16-.94c0-.12,0-.24,0-.37l.07-.19.34-.55a4,4,0,0,0,.32-1.61c0-.08,0-.33.07-.58l.07-.44V52l.46-1.68a8.11,8.11,0,0,1,.35-2.22L332,48l.33-.5.48-3.91.31-.44v-.76l.42-1.92.47-1.55.25-.62v-.17a8.33,8.33,0,0,1,.83-2.45l.07-.14.46-2,.29-.7a1.91,1.91,0,0,0,.06-.6,2,2,0,0,1,.18-1.07l.1-.12.26-.22.11-.57a8.87,8.87,0,0,1,1-3.05l.06-.1.1-.07a2.66,2.66,0,0,0,.31-.68l0-.13.14-.4a6.33,6.33,0,0,1,.76-1.43,3,3,0,0,0,.69-1.84c0-.1,0-.18,0-.25a5,5,0,0,0-3-.8c-.63,0-2.52.57-2.59,1.12v.61l-.07.12a5.63,5.63,0,0,1-.55.76,5.76,5.76,0,0,1-.56.49,5.07,5.07,0,0,0-.61.55l-.22.24c-.5.56-.78.86-1,1a2,2,0,0,1-.47.49c-.06,0-.13.11-.19.16v0l-.09.13c-.15.2-.27.38-.39.55a11.84,11.84,0,0,1-1.13,1.44L324.4,34a18.14,18.14,0,0,0-1.32,1.66c-.38.51-.77,1-1.22,1.55l-.09.15a30.27,30.27,0,0,0-2.59,3.54c-.45.68-.91,1.39-1.41,2.06a2.06,2.06,0,0,1-.48.64l-.15.15v0L317,44a1.74,1.74,0,0,0-.22.49,2.13,2.13,0,0,1-.68,1.08l-.52.37-.37-.93-1.1-5.47c0-.16,0-.4-.05-.63s0-.3,0-.41l-.4-.49v-.38a5,5,0,0,0-.18-.72,3.6,3.6,0,0,1-.15-.54,3.2,3.2,0,0,1-.34-.83l-.14-.4c0-.24-.05-.53-.07-.85,0-.89-.12-2.1-.63-2.53L311.4,31c-.24-.17-.71-.58-.71-1v-.23l.64-.56a1.83,1.83,0,0,0,.1-.28,1.51,1.51,0,0,1,.28-.64V25.81l-1.52-1.57a8.51,8.51,0,0,1-1.21-.49,4.35,4.35,0,0,0-1.68-.53c-1.21,0-1.91,1.24-2.59,2.44-.12.21-.23.42-.35.61s-.11.43-.22.85a11.93,11.93,0,0,1-.51,1.67v1.06a1.92,1.92,0,0,1-.21.67,4.71,4.71,0,0,0-.2.51,6,6,0,0,0-.07.62,2.32,2.32,0,0,1-.24,1l-.1.26c0,.11-.06.3-.14.68s-.18.78-.19.89,0,.26-.29.85c-.11.26-.29.69-.32.8a4.69,4.69,0,0,1-.06.6c0,.24-.06.48-.06.56v.13l-.4.68,0,1.53-.17.41c-.05.36-.07.7-.1,1a13.92,13.92,0,0,1-.23,1.79,7.69,7.69,0,0,1-.14.91v.91c0,.19-.06.62-.16,1.31-.08.51-.18,1.2-.18,1.38v1.48c-.2,1.82-.34,3.47-.47,5a24.93,24.93,0,0,0,.46,4l.07.34v.7A19.42,19.42,0,0,0,302.19,63Z"/><path class="cls-1" d="M343.89,50c.07-.34-.6-.34-.73-.6a5.4,5.4,0,0,1-1.21-3.3c0-1.21,2.48-1.35,3.15-1.62l.14-.2a2.19,2.19,0,0,0,.34-.47v-.27c0-.33.47-1.88.53-2.48.74-2.29,1.28-5,2.22-7.46,0-.14.4-.74.4-.88a8.54,8.54,0,0,0,.21-1c.27-.53.74-.94,1.08-1.48a9.08,9.08,0,0,1,.47-1.75c0-.13.66-.87.66-1a21.45,21.45,0,0,0,1.35-3.89c.14-.41.14-.14.33-.61a8.44,8.44,0,0,0,1.08-1.41l.13-.67c.08-.14.82-.14,1-.14a19.87,19.87,0,0,1,5,.81l.67.2a4.13,4.13,0,0,1,2.09,3.29c0,.27-.14.61-.14,1.15l2,2a2.68,2.68,0,0,1,.26.88v.33a19.84,19.84,0,0,0,0,3v.27c0,.4.14,1.68.14,1.75l.2.33c.13,2.22.47,5,.74,7.26a1.39,1.39,0,0,0,.13.41,2.31,2.31,0,0,0,.47.07c1.95.2,3.1,0,5,.53l.2.14.81.47a18.35,18.35,0,0,1,1.75,1.14l-1.21.07a8.77,8.77,0,0,1-1.48.07h-.07c-.27,0-2.82.13-4.24.26a1.2,1.2,0,0,0-.94.47c.2,1.15.2,1.55.41,2.63v7.6c0,.2-.21.73-.21.87l-.2.34-.13.53a1.32,1.32,0,0,1-.14.41l-.2.13c-.4.4-.27,1.21-.4,1.75l-.14.41c0,.13-.13.73-.13.94a6.72,6.72,0,0,1-.6,1.07l-.41.33c-.14,0-.67.81-.88.81l-.2.14c-1.27.13-1.07,1.21-2.28,1.21h-.27c-1.08-.07-.81-.74-.54-.94,0,0,.27-.27.48-.27l.19-.14c1.62-1.14,1.15-2.55,1.35-4.23l.14-.54V57.68l.13-.33a3.64,3.64,0,0,0,.2-1.41c0-.81-.2-1.55-.2-2.49,0-.2.2-.27.2-.61s-.2-.33-.2-.6.2-.34.2-.41a.41.41,0,0,0-.2-.4V48c-.27-.74,0-1.41-.27-2h-1.54c-.88,0-2.36.61-3.77.61-.27,0-1.15.2-1.21.2h-.81l-.34.13c-.34.21-2.48.81-3.23,1.49,0,.33-.13.67-.13,1l-.13.87a9,9,0,0,0-.54,1.54V52c0,.2-.27,1.14-.27,1.21l-.27.8c0,1.08-1,1.35-1,1.89v.47c-.21.13-.08.4-.08.4l-.4.54-.13.74a9.66,9.66,0,0,1-.94,2.42c-.14.27-.27.13-.88.13l.2.47-.33.21-.2.53-.14.14-.67.13v.6c0,.21-.47.68-.54.81s.2.14.2.27-.33.74-.6.74a1.13,1.13,0,0,1-1-.74,4.39,4.39,0,0,1-.4-.74,8.46,8.46,0,0,1-.34-1.74,22.18,22.18,0,0,1,.34-2.56C342.89,58.42,343.22,53.92,343.89,50Zm9.42-9.08a6.46,6.46,0,0,0-.27,1.62h1.48c.2,0,1.07-.07,1.21-.07l.54.07,2.21-.07h3v-.81l-1.14-7.46a16.07,16.07,0,0,0-.74-2l-.13-.47a5.79,5.79,0,0,1-.27-.67h-2l-.27.14c-.6,1.27-1.54,3.76-2.49,6.18-.26.34-.13.81-.13,1.07l-.13.07-.08.67Z"/><path class="cls-1" d="M360.84,65.38h-.27c-.87-.06-1.16-.43-1.25-.74a1.08,1.08,0,0,1,.42-1.11,1.29,1.29,0,0,1,.58-.34l.1-.07c1-.72,1-1.53,1.06-2.66,0-.39,0-.8.07-1.22l.14-.54,0-1.2.13-.33a3,3,0,0,0,.17-1.23,8.28,8.28,0,0,0-.09-1.09,9.82,9.82,0,0,1-.11-1.4A.93.93,0,0,1,362,53c0-.07,0-.08,0-.13a1.07,1.07,0,0,1-.2-.6.83.83,0,0,1,.13-.45l-.15-.1,0-.26V48.09a3.47,3.47,0,0,1-.14-1.15c0-.16,0-.32,0-.46h-1.16a7.22,7.22,0,0,0-1.34.24,10.94,10.94,0,0,1-2.43.37c-.13,0-.62.1-.83.14l-.38.06h-.72l-.24.1a5,5,0,0,1-.74.29,11.47,11.47,0,0,0-2.19,1l-.06.34a2,2,0,0,0-.06.42l-.14.94a1.12,1.12,0,0,1-.15.43,4.44,4.44,0,0,0-.39,1.13V52a5.3,5.3,0,0,1-.2,1,1.41,1.41,0,0,0-.07.29l-.27.82a2.22,2.22,0,0,1-.77,1.54,1.65,1.65,0,0,0-.24.27v.72l-.07,0,.09.17-.52.67-.12.63A6.12,6.12,0,0,1,348,60c-.1.22-.21.43-.3.66a.77.77,0,0,1-.57.46l.06.16-.55.34-.27.55-.24.24-.41.08v.19a1.29,1.29,0,0,1-.4.8.71.71,0,0,1,.06.28c0,.35-.49,1.24-1.1,1.24a1.61,1.61,0,0,1-1.45-1,4.66,4.66,0,0,1-.42-.77,9,9,0,0,1-.38-2,7.82,7.82,0,0,1,.14-1.32c.06-.33.13-.75.2-1.31,0-.27.31-4.61,1-8.55l0,0a1.11,1.11,0,0,1-.59-.42,5.78,5.78,0,0,1-1.3-3.58c0-1.32,1.68-1.68,2.8-1.91l.54-.13,0-.06a3.67,3.67,0,0,0,.25-.32v-.14a7.12,7.12,0,0,1,.25-1.25,10.75,10.75,0,0,0,.28-1.29l0-.1c.29-.9.55-1.87.82-2.88.41-1.5.83-3.06,1.39-4.55a2.17,2.17,0,0,1,.25-.55l.14-.28a2.43,2.43,0,0,1,.08-.36,2.65,2.65,0,0,0,.12-.57v-.12l.05-.1a5,5,0,0,1,.65-.93,5.93,5.93,0,0,0,.42-.54c.05-.21.09-.41.13-.61a4.51,4.51,0,0,1,.32-1.1,2.27,2.27,0,0,1,.41-.63,3.46,3.46,0,0,0,.23-.31v0l.07-.12a9.7,9.7,0,0,0,.88-2.38c.13-.47.26-1,.43-1.43a1,1,0,0,1,.26-.46,1.47,1.47,0,0,0,.08-.17l.07-.11.31-.39a7.83,7.83,0,0,0,.69-.86h0l.16-.76c.18-.35.61-.41,1.46-.41a20.47,20.47,0,0,1,5.13.83l.76.24a4.66,4.66,0,0,1,2.34,3.73,3.13,3.13,0,0,1-.06.48,2.93,2.93,0,0,0-.07.47l1.9,2a3.16,3.16,0,0,1,.31,1.1v.33a1.77,1.77,0,0,1,0,.19,19.09,19.09,0,0,0,0,2.8v.31c0,.28.07,1,.11,1.39,0,.08,0,.14,0,.2l.21.34v.12c.13,2.16.45,4.87.73,7.23v0h.1c.72.07,1.28.09,1.82.11a12.62,12.62,0,0,1,3.3.44l.15.07.19.14.78.45a6.56,6.56,0,0,1,1.14.73l.62.42,1.33.84-3,.17a9.67,9.67,0,0,1-1.3,0c-.3,0-2.83.13-4.26.26a.9.9,0,0,0-.45.13c.07.43.11.75.15,1.07s.11.75.21,1.3v7.7a2.73,2.73,0,0,1-.14.65,2.67,2.67,0,0,0-.07.26V57l-.23.35-.11.42a1.87,1.87,0,0,1-.18.55l-.06.12-.31.21a2.4,2.4,0,0,0-.11.75,4.59,4.59,0,0,1-.09.7l-.12.39c0,.09,0,.22-.06.36a4.25,4.25,0,0,0-.07.48,4.86,4.86,0,0,1-.74,1.42l-.6.48a1.43,1.43,0,0,0-.15.18,2,2,0,0,1-.69.6l-.24.15h-.11a1.13,1.13,0,0,0-.84.49A1.84,1.84,0,0,1,360.84,65.38Zm-.49-1,.25,0h.24c.39,0,.51-.14.76-.41a2.12,2.12,0,0,1,1.34-.78l.26-.16.26-.29a1.66,1.66,0,0,1,.49-.45l.34-.29s.33-.59.42-.79.05-.35.08-.54,0-.25.06-.31l0-.14.13-.4a3.23,3.23,0,0,0,.05-.5,2.19,2.19,0,0,1,.48-1.45l.15-.11,0-.11.2-.76.15-.25c0-.09.05-.19.09-.33s.09-.32.1-.38V48.34c-.1-.48-.15-.87-.21-1.27s-.09-.73-.19-1.27l0-.18.09-.16a1.68,1.68,0,0,1,1.37-.72c1.39-.13,3.95-.26,4.24-.26a8.7,8.7,0,0,0,1.27,0h0a2.71,2.71,0,0,0-.47-.27l-1-.61a11.72,11.72,0,0,0-3-.38c-.55,0-1.14-.05-1.83-.12-.21,0-.5-.07-.53-.07l-.23-.06-.1-.2a1.61,1.61,0,0,1-.19-.64c-.28-2.27-.59-4.94-.73-7.1l-.21-.36,0-.39c-.05-.57-.11-1.2-.11-1.49v-.27a18.83,18.83,0,0,1,0-2.92v-.44a2.07,2.07,0,0,0-.18-.59l-2-2.1v-.2a4.32,4.32,0,0,1,.1-.86,1.67,1.67,0,0,0,0-.29,3.63,3.63,0,0,0-1.79-2.83l-.61-.19a19.6,19.6,0,0,0-4.83-.78c-.29,0-.47,0-.58,0l-.08.38c0,.2-.18.46-.89,1.29-.1.11-.18.21-.24.29a1.44,1.44,0,0,1-.27.42h0l0,.09c-.16.45-.28.92-.41,1.37a11.07,11.07,0,0,1-.94,2.56,2.42,2.42,0,0,1-.41.62c-.08.11-.17.22-.22.3h0l-.06.11a3.39,3.39,0,0,0-.26.9,6.22,6.22,0,0,1-.17.76l-.06.13a7.55,7.55,0,0,1-.53.7,5.41,5.41,0,0,0-.48.65,5,5,0,0,1-.14.69c0,.09-.05.17-.06.21a1.43,1.43,0,0,1-.26.64l-.14.27,0,.11c-.55,1.47-1,3-1.37,4.51-.27,1-.53,2-.83,2.88a12.6,12.6,0,0,1-.3,1.37,9.4,9.4,0,0,0-.22,1V44l-.06.11a2.77,2.77,0,0,1-.42.59l-.17.26-.14.06a5.18,5.18,0,0,1-.83.21c-.71.15-2,.43-2,.94a4.82,4.82,0,0,0,1.09,3l.06.1s.06,0,.12,0,.78.32.67.91c-.67,3.86-1,8.33-1,8.65-.09.64-.15,1.06-.21,1.4a7.67,7.67,0,0,0-.13,1.16,8.88,8.88,0,0,0,.3,1.56,3.85,3.85,0,0,0,.31.58l.1.1,0,.12a.48.48,0,0,0,.17.22l.31-.59a1.3,1.3,0,0,1,.23-.32,2.7,2.7,0,0,0,.25-.34v-.94l.89-.18.21-.55.11-.07-.33-.77h.76c.2,0,.35,0,.47,0h0q.12-.29.27-.57A5.15,5.15,0,0,0,347.7,58l.16-.88.34-.44a.74.74,0,0,1,.11-.48v-.28a1.38,1.38,0,0,1,.51-1,1.23,1.23,0,0,0,.49-.93l0-.16.25-.76c0-.07,0-.17.09-.35s.16-.64.17-.75v-.2a5.4,5.4,0,0,1,.47-1.46,1.78,1.78,0,0,1,.08-.18l.13-.85a2.34,2.34,0,0,1,.07-.53,2.73,2.73,0,0,0,0-.4v-.22l.17-.15a9.42,9.42,0,0,1,2.66-1.3,5.34,5.34,0,0,0,.65-.25l.59-.2h.81l.18,0a6.56,6.56,0,0,1,1-.16,10.09,10.09,0,0,0,2.2-.34,6.89,6.89,0,0,1,1.57-.27h1.86l.14.3a2.87,2.87,0,0,1,.17,1.16,2.42,2.42,0,0,0,.11.89l0,.17v3.21a.9.9,0,0,1,.2.62.68.68,0,0,1-.17.42,1.07,1.07,0,0,1,.17.59,1.12,1.12,0,0,1-.2.65,10,10,0,0,0,.1,1.24,9.4,9.4,0,0,1,.1,1.21,4.13,4.13,0,0,1-.22,1.55l-.11.29,0,1.1-.14.54c0,.33,0,.7,0,1.06A3.71,3.71,0,0,1,361,63.94l-.33.23h-.15s-.08.08-.12.12Zm-4.08-21.28-.6-.07-.41,0-.74,0h-2v-.5a7.75,7.75,0,0,1,.31-1.83l.71-1.66.09-.87.07,0a1.63,1.63,0,0,1,.22-1l.45-1.15c.78-2,1.52-3.92,2-5l.07-.15.53-.27h2.64v.5a1.47,1.47,0,0,1,.12.22,1.89,1.89,0,0,1,.14.34l.12.44a13.38,13.38,0,0,1,.76,2.16l1.14,7.38V43h-3.46l-1.09,0ZM355.73,42l.6.07,1,0,1.12,0h2.46v-.31l-1.13-7.39a19.07,19.07,0,0,0-.69-1.87l-.18-.57-.06-.14-.08-.15h-1.55c-.49,1.07-1.19,2.88-1.93,4.78l-.54,1.35c-.09.1-.07.32,0,.51a2.5,2.5,0,0,1,0,.25v.31l-.17.08-.07.55-.77,1.8a6.66,6.66,0,0,0-.16.87h.94l.67,0Z"/><path class="cls-1" d="M375.65,39.93v-.27c.27-2.35,1.28-4.1,2-6.25,0-.13.4-.87.4-1.08l.47-.74c0-.26.4-1.14.4-1.34.61-1.21,1.35-2.55,1.89-3.9l.4-.94.81-.74c.34-.4.34-1.14.87-1.34h.54l.47-.14h.27c.34,0,1.95.47,1.95.88v1c0,.07.74.88.74,1.08v1.08l-.2.26a20.54,20.54,0,0,1-.88,3c0,.2-.53,1.28-.53,1.55l-.27.88a7.84,7.84,0,0,0-1.08,2.95v1c1.08,0,1.35-1.14,1.88-1.75.74-.34,2.69-1.81,3.16-2a15.67,15.67,0,0,1,1.48-.74c.75-.33,1.22-1.13,1.82-1.68s1.68-1,2.48-1.54L396.16,28a3.61,3.61,0,0,0,1-.54c1.34-.87,3.22-2.62,4.7-2.62.88,0,1.28,2.36,1.28,3V28c0,.47-.2,2.22-.2,2.22l-.2.4c-1.82,3-4.24,5.18-7.06,7.54l-.4.2c-.21,0-.68.47-.88.47l-.67.2v.47a3.56,3.56,0,0,1-1.08.67,17.77,17.77,0,0,1-4.5,1.08H388a10.57,10.57,0,0,0-3,1.34v.27a14,14,0,0,0,2.62,2.22c.87.74,1.68,1.62,2.55,2.49a43.23,43.23,0,0,0,4.24,3,2.61,2.61,0,0,1,1.08.54c.2,0,1.68.8,1.81.8s.61.14.61.34v.13c2.42,1,2.69,1.88,7.73,4L408.73,58l2.89,1.62c.14.07.88.67.88.87l1.88,1.35v.4c-.54,0-.74-.6-1.28-.6h-1.48c-.67-.21-.53.06-1.61-.14l-2.08.06c-.41,0-.41-.19-.81-.19h-.21L405.17,61l-1.48.28h-.2a14.39,14.39,0,0,0-3.16-.47l-.27-.21a7.88,7.88,0,0,0-1.68-.4,4.15,4.15,0,0,1-2.35-.67,1.19,1.19,0,0,0-.54.13l-.2-.34-4-2.48L390.17,56c.27-.13-.2-.67-.33-.67l-.54-.13S389,55,389,54.86L388,53.65a3.48,3.48,0,0,1-1.48-1.95L383.92,49c.07-1.14-1-.47-1.21-1.68l-1.48-1.48-1.34,3c0,.13-.34.46-.34.67-.14.81-.8,4.44-1,5.31a3.75,3.75,0,0,0-.13.74l-.21.54a7.61,7.61,0,0,1-.33,2.15c-.67.88-.2,2.75-.47,3.83l-.2.6v.55c0,.8.2,1.27.2,1.88-.27,0-.27-.34-.47-.61-1.14-2.42-1.48-5.18-2.09-7.8a34,34,0,0,1-.74-6.38A36.18,36.18,0,0,1,375.65,39.93Z"/><path class="cls-1" d="M377.9,65.65h-.5a.84.84,0,0,1-.77-.61.93.93,0,0,0-.1-.2l0-.08a25.43,25.43,0,0,1-1.7-5.89c-.13-.68-.27-1.35-.42-2a34.27,34.27,0,0,1-.76-6.49,36.71,36.71,0,0,1,1.55-10.5v-.2a16.55,16.55,0,0,1,1.33-4.55c.24-.59.48-1.18.7-1.82a3.23,3.23,0,0,1,.21-.53c.06-.14.17-.39.19-.47v-.15l.07-.07.41-.65a4.75,4.75,0,0,1,.24-.76c.06-.18.13-.35.15-.45V30.1l.05-.07.44-.87c.5-1,1-2,1.42-3l.53-1.13.81-.74a2.85,2.85,0,0,0,.16-.38,1.64,1.64,0,0,1,.88-1.06l.17,0h.47l.54-.14h.27c.17,0,2.45.38,2.45,1.38v.85l.11.15c.45.55.63.8.63,1.08v1.24l-.26.35a6.85,6.85,0,0,0-.26,1,6.76,6.76,0,0,1-.58,1.86,5.85,5.85,0,0,1-.25.7,5,5,0,0,0-.26.71l0,.12-.27.87-.21.42a6.33,6.33,0,0,0-.85,2.42v.3a2.63,2.63,0,0,0,.54-.72,5.15,5.15,0,0,1,.47-.68l.17-.12a19.67,19.67,0,0,0,1.76-1.13,11.92,11.92,0,0,1,1.41-.9l.11,0,.36-.21a4.23,4.23,0,0,1,1.06-.51,3.58,3.58,0,0,0,1-.9,8.13,8.13,0,0,1,.63-.67,10.62,10.62,0,0,1,1.57-1c.33-.19.66-.38,1-.59L396,27.56a3.81,3.81,0,0,0,.81-.39l.11-.09c.32-.21.67-.48,1-.75,1.24-.92,2.65-2,3.93-2,1.59,0,1.78,3.49,1.78,3.53V28c0,.49-.18,2.1-.2,2.28l-.05.17-.21.4c-1.88,3.15-4.37,5.34-7.18,7.69l-.1.06-.5.26h-.12s-.08.09-.16.14a1.42,1.42,0,0,1-.62.32l-.27.08v.3l-.14.14a4.07,4.07,0,0,1-1.33.82l-1.3.39a11.11,11.11,0,0,1-3.31.7H388a15,15,0,0,0-2.44,1,10.21,10.21,0,0,0,1.59,1.34c.25.18.51.37.76.57.68.58,1.3,1.2,1.95,1.87l.65.65a33,33,0,0,0,3.41,2.41l.66.43a3.37,3.37,0,0,1,1.12.56,8.32,8.32,0,0,1,1,.47,6.81,6.81,0,0,0,.62.29,1.13,1.13,0,0,1,1,.63,15.52,15.52,0,0,1,2.2,1.21A34.28,34.28,0,0,0,405.84,56L409,57.5l2.91,1.63a3.5,3.5,0,0,1,1,1l2,1.41v1.16h-.5a1.46,1.46,0,0,1-1-.42c-.16-.13-.24-.18-.32-.18l-1.62,0A1,1,0,0,0,411,62,3.24,3.24,0,0,1,410,62l-2,.06h0a1.51,1.51,0,0,1-.64-.14.27.27,0,0,0-.18,0h-.21l-1.73-.27-1.79.27-.09,0a5.54,5.54,0,0,0-1.9-.32,6.27,6.27,0,0,1-1.18-.13l-.19-.08-.2-.15-.24-.08a5.2,5.2,0,0,0-1.21-.28,4.66,4.66,0,0,1-2.48-.66l-.13,0-.43.27-.42-.66-3.87-2.42-1.82-1.39.29-.14-.47-.14a1.2,1.2,0,0,1-.54-.54L387.68,54A3.9,3.9,0,0,1,386.11,52l-2.7-2.77V49c0-.23,0-.23-.22-.33a1.46,1.46,0,0,1-.95-1.07l-.86-.86-1,2.31a1.35,1.35,0,0,1-.21.39l-.12.2c-.13.78-.8,4.46-1,5.36a3.51,3.51,0,0,0-.12.62l0,.18-.21.53c0,.16,0,.4,0,.65a3.64,3.64,0,0,1-.31,1.55,3.68,3.68,0,0,0-.33,2.08,6.66,6.66,0,0,1-.1,1.65l-.19.57v.46a5.7,5.7,0,0,0,.1,1,4.84,4.84,0,0,1,.1.89Zm.65-33.13a4.51,4.51,0,0,1-.25.65,3.13,3.13,0,0,0-.14.33c-.25.74-.5,1.37-.75,2a15.66,15.66,0,0,0-1.26,4.24v.35a35.74,35.74,0,0,0-1.54,10.29,34,34,0,0,0,.73,6.29c.16.65.29,1.34.43,2a37.48,37.48,0,0,0,.95,3.93l.22-.64A6.81,6.81,0,0,0,377,60.6a4.25,4.25,0,0,1,.48-2.62,3.05,3.05,0,0,0,.16-1.07,8.33,8.33,0,0,1,.08-.86l.2-.55a4.63,4.63,0,0,1,.15-.78c.2-.85.87-4.49,1-5.26a1.2,1.2,0,0,1,.27-.59l.06-.09,0-.1,1.64-3.7,2.11,2.11,0,.16c.06.33.16.37.41.48a1.17,1.17,0,0,1,.81,1.08L387,51.53a3,3,0,0,0,1.28,1.7l.13.11,1,1.36,0,0,.45.11a1.28,1.28,0,0,1,.78.86.52.52,0,0,1,0,.11l.87.67,4.09,2.62a1.59,1.59,0,0,1,.32,0h.15l.13.09a3.71,3.71,0,0,0,2.07.58,5.49,5.49,0,0,1,1.51.33l.47.17.18.14a7.91,7.91,0,0,0,.91.08,6.56,6.56,0,0,1,2.13.36h.11l1.47-.28,1.83.28h.13a1.25,1.25,0,0,1,.62.15.41.41,0,0,0,.19,0l2.12-.06h.05a2.83,2.83,0,0,0,.84.06,1.74,1.74,0,0,1,.75.07h.85L412,60.7v-.15a3.77,3.77,0,0,0-.62-.55l-2.89-1.61-3.07-1.54A33.42,33.42,0,0,1,400,54.08a15.68,15.68,0,0,0-2.32-1.25l-.31-.12v-.29l-.11,0c-.16,0-.27,0-1-.39a8.68,8.68,0,0,0-.91-.42h-.21l-.06-.14a2.49,2.49,0,0,0-.76-.39h-.15l-.09-.08-.75-.49A36.08,36.08,0,0,1,389.85,48l-.68-.69c-.64-.65-1.24-1.26-1.87-1.8l-.72-.54a9.18,9.18,0,0,1-2-1.75l-.1-.14v-.44c0-.83,3.49-1.84,3.52-1.84h.14a10.62,10.62,0,0,0,3-.65l1.35-.41.13,0c.06,0,.38-.25.58-.4v-.62l1.17-.32c-.05,0,.08-.09.15-.15a1.85,1.85,0,0,1,.57-.3l.28-.14a29.59,29.59,0,0,0,6.91-7.37l.14-.29c.06-.54.19-1.74.19-2.08V27.9c0-.84-.45-2.44-.78-2.53-.95,0-2.27,1-3.33,1.76-.37.27-.72.53-1,.74a3.07,3.07,0,0,1-1.1.6l-1.35,1c-.36.24-.72.44-1.07.64a10.64,10.64,0,0,0-1.41.89,7.55,7.55,0,0,0-.53.57,4.29,4.29,0,0,1-1.39,1.18l-.21,0c-.07,0-.47.27-.69.4a3.32,3.32,0,0,1-.62.32c-.21.1-.76.48-1.21.79a21.26,21.26,0,0,1-1.8,1.16,3.35,3.35,0,0,0-.31.46,2.23,2.23,0,0,1-1.89,1.38h-.5V35.83a7.29,7.29,0,0,1,1-2.85l.17-.33.22-.74a4.69,4.69,0,0,1,.33-1,5,5,0,0,0,.21-.54v-.14l.06-.06a5.72,5.72,0,0,0,.51-1.64,6.63,6.63,0,0,1,.34-1.26l.16-.24v-.83c-.08-.13-.29-.4-.4-.54-.26-.31-.34-.42-.34-.62v-.88a4.82,4.82,0,0,0-1.45-.5H384l-.54.14H383a1.21,1.21,0,0,0-.23.45,2.58,2.58,0,0,1-.38.71l-.77.71-.36.85c-.42,1-1,2.07-1.46,3.07l-.4.78a4.67,4.67,0,0,1-.19.6,4.68,4.68,0,0,0-.2.61v.14Z"/><path class="cls-1" d="M414.94,57.88l.33-2.28v-.47c0-.2.48-1.75.48-2V52c0-.14.27-.47.47-.94,0-.21.2-.88.34-.88,0-.2.4-1.54.4-1.81,0-1.15-1.95-3-1.95-3.3s1-1,1.21-1.48c.34,0,1.68-.2,1.81-.2a1.59,1.59,0,0,0,1.42-1c1-1.21,1.21-2.69,2-4A27.38,27.38,0,0,0,423,35.63l.27-.94c.67-1.34,2-2.49,2-3.9h-.54l-.34.2a7.39,7.39,0,0,0-.67.4l-.47.28-.6.53-.81.13c-.81.21-1.55,1.21-2.56,1.21A24.82,24.82,0,0,1,417,32.2l-.74-1c-.61-.75-1.42-1.35-1.42-2.43V28.1l.81-.74a4.86,4.86,0,0,1,2.29-.81c6.92-2.15,15.46-4.3,23.06-4.3h2.28l2,.34v.2c0,.67-1.62,1.34-2.09,1.55h-.6l-1.14,1c-.41,0-1,.61-1.42.81l-.73.2c-.21,0-1,.34-1.15.34s-1,.54-1.21.54a1.93,1.93,0,0,1-.54.26l-1.75.54-1-.2a4.46,4.46,0,0,0-.81.2c-.34.2-.14.88-.61,1s-.53,0-.53.54c0,.2-.21,1.54-.21,1.75a30.91,30.91,0,0,1-1.34,3.49c-.81,1.75-1.34,3.5-2.36,5.25v.6h.81l.13.27a12.15,12.15,0,0,1,1.42-.47l.81-.2c.27,0,.74-.47.94-.47l.87-.34c.14,0,1.88-.4,2-.4a48.07,48.07,0,0,1,7.4-1.34h1.13c.82,0,1.55-.41,2.56-.41h.2c-.6.61-1.21.41-2.42,1.14h-.34l-.33.27-.6.54c-1.62,1.35-2,1-3.5,1.75-.2,0-.61.34-.74.34l-1.21.8-.94.54-1.21,1.61-1.55.61-1.88.67h-.4a1.68,1.68,0,0,0-.61.27l-.2.41-.13.19c-.81.34-.14.41-1.15.41L426,48.07s-.61.34-.61.61l-1.54.13c-.68.87-.41.67-.74,1.82a27,27,0,0,0-1.75,5.84v.94c.2,0,1.07-.06,1.34-.06,1.75-.14,1.62-.27,3.17-1.08.13-.2,1.68-.81,1.87-1,1.76-.87,3.1-1.95,4.91-2.69,2.69-1.34,5.58-1.94,8.47-3,1-.14,2-.88,2.9-.88l-2.15,1.89c-.34.6-.34.2-.94.6l-.61.6c-.74.54-1.75,1-2.49,1.48-.2,0-.81.88-1,.88a2.63,2.63,0,0,1-.74.33,19.93,19.93,0,0,0-3.29,2.09l-.14.2-.2.81-.47.2c-.2.13-.87.8-1.14.8l-.4.34h-.55a24.78,24.78,0,0,0-3.08,1.75c-1.15.61-2.29.94-3.5,1.54a16.43,16.43,0,0,1-6,1.42h-.2a4.06,4.06,0,0,1-1.14-1,4.56,4.56,0,0,1-1-3.49Z"/><path class="cls-1" d="M417.29,64.17l-.39,0a4,4,0,0,1-1.21-.95l-.1-.1a5.08,5.08,0,0,1-1.15-3.85V57.81l.33-2.28v-.4A6,6,0,0,1,415,54c.08-.31.2-.77.22-.87V52a1.13,1.13,0,0,1,.23-.6,5.46,5.46,0,0,0,.25-.49,2.32,2.32,0,0,1,.36-1c0-.14.08-.35.16-.67s.2-.78.21-.9c0-.56-.81-1.57-1.29-2.17s-.66-.83-.66-1.12.32-.7.72-1.09a3.27,3.27,0,0,0,.53-.58l.12-.31h.34c.17,0,.8-.08,1.17-.13l.64-.07c.34,0,.63-.12,1-.75a7.83,7.83,0,0,0,1.19-2.24,11.2,11.2,0,0,1,.83-1.81c.21-.38.43-.74.65-1.09a10.76,10.76,0,0,0,.87-1.6l.25-.89a10.3,10.3,0,0,1,.88-1.45,7.05,7.05,0,0,0,.95-1.69h0a5,5,0,0,0-.63.38l-.52.3-.63.57-.95.16a3.15,3.15,0,0,0-.8.46,3.25,3.25,0,0,1-1.84.75l-.17,0a10,10,0,0,1-1.53-.87c-.31-.19-.61-.38-.83-.5l-.16-.14-.74-1c-.1-.13-.24-.28-.37-.42a3.37,3.37,0,0,1-1.14-2.3v-.89l1-.89a3.45,3.45,0,0,1,1.91-.8,4.78,4.78,0,0,0,.57-.12c9.36-2.91,16.95-4.32,23.2-4.32h2.29l2.45.42v.62c0,.86-1.19,1.49-2.35,2l-.24.06h-.41l-1.14,1h-.19a2.93,2.93,0,0,0-.63.39,5.34,5.34,0,0,1-.56.37l-1,.25a4.89,4.89,0,0,0-.52.17,2.09,2.09,0,0,1-.63.17l-.37.21a4.12,4.12,0,0,1-.65.3,1.83,1.83,0,0,1-.63.29l-1.82.56-1.06-.22a4.19,4.19,0,0,0-.51.14.42.42,0,0,1,0,.14,1.1,1.1,0,0,1-.66.89.89.89,0,0,1-.23.1c0,.14-.06.53-.11.92s-.09.7-.1.81a29,29,0,0,1-1.39,3.7c-.29.63-.54,1.25-.79,1.88a27.55,27.55,0,0,1-1.5,3.26h.61l.06.14A5.38,5.38,0,0,1,430,40l.9-.21.25-.17a1.67,1.67,0,0,1,.56-.29l1-.35.91-.19,1-.21a49.25,49.25,0,0,1,7.44-1.34h1.18a3.92,3.92,0,0,0,1-.18,6.24,6.24,0,0,1,1.54-.23h1.41l-.85.85a2.57,2.57,0,0,1-1.23.66,5.17,5.17,0,0,0-1.28.56l-.12.07h-.31l-.78.68A6.08,6.08,0,0,1,440.25,41a8.83,8.83,0,0,0-1.22.47l-.22,0s-.11.08-.19.13a1.87,1.87,0,0,1-.35.17l-1.13.76-.88.5L435,44.72l-1.68.65-2.06.71h-.4l-.23.12-.38.66-.14,0a.79.79,0,0,0-.28.16c-.23.27-.46.29-1,.29l-2.73,1.17a1.7,1.7,0,0,0-.3.23v.38l-1.78.15a1.23,1.23,0,0,0-.33.68c0,.18-.08.42-.19.8a26.82,26.82,0,0,0-1.73,5.76v.36h.06l.78,0a3.76,3.76,0,0,0,2.17-.61l.69-.38a5.86,5.86,0,0,1,1.07-.58,6.13,6.13,0,0,0,.78-.39l.11-.08c.72-.35,1.38-.75,2-1.14a19.73,19.73,0,0,1,2.93-1.56,33.79,33.79,0,0,1,5.62-2c.95-.29,1.91-.58,2.87-.91a5.65,5.65,0,0,0,1.26-.42,4.84,4.84,0,0,1,1.8-.49h1.33L442.23,51a.94.94,0,0,1-.73.55.8.8,0,0,0-.33.14l-.53.55a14.22,14.22,0,0,1-1.59,1l-1,.56-.14.08-.27.28a2,2,0,0,1-.68.57,2.77,2.77,0,0,1-.79.35,16.34,16.34,0,0,0-2.75,1.72l-.35.29-.24,1-.7.3s-.06.07-.16.15a3.17,3.17,0,0,1-1,.66l-.44.37H430a8.93,8.93,0,0,0-1.68.93c-.4.26-.8.52-1.26.76a18.11,18.11,0,0,1-1.88.84c-.53.22-1.08.44-1.63.71A17,17,0,0,1,417.29,64.17Zm-.09-1h.09a16.16,16.16,0,0,0,5.77-1.37c.58-.28,1.15-.51,1.7-.74a18.88,18.88,0,0,0,1.78-.79c.43-.23.81-.48,1.18-.72a9.81,9.81,0,0,1,2-1.06l.16,0h.36l.4-.34h.19l.53-.45.34-.27.32-.14.21-.73.26-.33.39-.28a16.4,16.4,0,0,1,3-1.85l.2,0a4.51,4.51,0,0,0,.48-.26l.13-.07c.08-.07.19-.2.27-.28a2,2,0,0,1,.67-.56c.3-.19.63-.37,1-.56a12.71,12.71,0,0,0,1.42-.86l.55-.56a1.74,1.74,0,0,1,.78-.35s0-.06.08-.14l.11-.13.36-.32a3.6,3.6,0,0,1-.7.18c-.89.32-1.86.61-2.83.9a34.51,34.51,0,0,0-5.49,2,19.84,19.84,0,0,0-2.82,1.5c-.64.39-1.3.79-2,1.16a5.75,5.75,0,0,1-1,.51c-.28.13-.74.35-.84.42l-.07.11h-.05l-.74.4a4.8,4.8,0,0,1-2.62.74l-.76,0-.62,0h-.5V56.47a27,27,0,0,1,1.78-6,6,6,0,0,0,.16-.68,2.49,2.49,0,0,1,.65-1.27l.13-.17L425,48.2a2.52,2.52,0,0,1,.69-.57l3.07-1.27h.36a1.58,1.58,0,0,1,.45-.29l0-.08.23-.47.11-.08a1.92,1.92,0,0,1,.89-.35h.31l3.21-1.19,1.27-1.63.94-.54,1.38-.87.12-.08a1.73,1.73,0,0,1,.56-.24,9.26,9.26,0,0,1,1.27-.49A5.23,5.23,0,0,0,442,38.88l.75-.66h-.63a49.12,49.12,0,0,0-7.29,1.32l-.11,0-.9.19-1,.2-1,.35c.05,0-.06.08-.13.13a1.78,1.78,0,0,1-.74.34l-.76.19a4.74,4.74,0,0,0-1,.33,1.26,1.26,0,0,1-.5.15h-.31l-.13-.27h-1V39.94l.07-.12a26,26,0,0,0,1.52-3.29c.26-.64.52-1.28.81-1.91s1.25-3,1.31-3.34c0-.06.05-.48.1-.89s.09-.7.1-.81c0-.53.19-.81.64-.92a.29.29,0,0,0,.14-.05l.11-.05h0s0-.1,0-.17a1.16,1.16,0,0,1,.47-.79l.1,0a3.9,3.9,0,0,1,1-.23l1,.19,1.77-.53s.14-.1.27-.18l.12-.08h.15a2.2,2.2,0,0,1,.37-.21,1.9,1.9,0,0,1,.84-.33l.3-.11a3.35,3.35,0,0,1,.76-.22l.69-.19.33-.25a2.85,2.85,0,0,1,1-.55l1.17-1H443a6.32,6.32,0,0,0,1.53-.86l-1.38-.24H441c-6.15,0-13.64,1.4-22.91,4.28l-.68.15a2.59,2.59,0,0,0-1.4.53l-.67.61v.45a2.47,2.47,0,0,0,.88,1.63,6.27,6.27,0,0,1,.42.48l.69.94.78.48c.43.27,1,.6,1.26.74a2.6,2.6,0,0,0,1.18-.58,3.85,3.85,0,0,1,1.17-.61l.7-.12.5-.44.55-.33a6,6,0,0,1,.7-.41l.42-.26h1.18v.5a5.27,5.27,0,0,1-1.23,2.88,10.15,10.15,0,0,0-.77,1.24l-.24.86a11.3,11.3,0,0,1-1,1.8c-.21.33-.42.67-.63,1.06a10.5,10.5,0,0,0-.77,1.67,8.37,8.37,0,0,1-1.3,2.44,2,2,0,0,1-1.8,1.19l-.51.07-1,.12a4.85,4.85,0,0,1-.59.62l-.36.37.39.5c.63.79,1.51,1.88,1.51,2.8a6.82,6.82,0,0,1-.24,1.14c-.08.3-.15.58-.17.69v.5h-.24a1.93,1.93,0,0,0-.09.37l0,.19a5.43,5.43,0,0,1-.34.65,1.47,1.47,0,0,0-.09.17v1.07a6.48,6.48,0,0,1-.25,1.1c-.09.3-.21.77-.23.88v.44l-.33,2.32v1.31a4.09,4.09,0,0,0,.89,3.17l.09.09A4.05,4.05,0,0,0,417.2,63.17Z"/><path class="cls-1" d="M449.31,41.88a41.21,41.21,0,0,1,1.41-6.79,10.32,10.32,0,0,0,.47-2.49c0-.33-.26-.53-.47-.87a3.64,3.64,0,0,1-.33-1.35c0-.67.67-1.54,2.55-2.15l.27-.2c.34-.6,1.14-1.21,1.14-1.41.81-.6,1.08-1.88,2.29-1.88.54,0,.81.33,1.28.33h.13c.34-.13,1.75-.94,2.22-1.07,4-2.08,8.2-2.29,12.77-2.29a5.3,5.3,0,0,1,4.24,1.95c.54.61.54,2.56.54,3.36a5.66,5.66,0,0,1-.2,1.82c-.88,2.42-3.16,4.7-5.11,6.46l-.68.53-.19.2c-.21,0-.88.54-1.08.54-1.21.88-2.29,1.88-3.5,2.76-.33.4-.87.4-1.21.74a6.3,6.3,0,0,0-1.21,1.07l-.74.54a6.84,6.84,0,0,0-.67.47c-.4.34-.47.27-.67.54l.2.27c2.62,1.75,3.76,3.63,6.25,5.78,1.21,1,2.63,2.09,3.84,3l.87.47,2.49,1.21.2.2c1.68,1.21,3.7,2.29,5.44,3.56l.21.14c.26.13,2.89,2.48,3.23,2.62a4.74,4.74,0,0,1,1.07.88h-.27c-.2,0-.8.19-.8-.21h-1.76c-.6,0-1.21-.34-1.88-.34a3,3,0,0,0-1.21.34l-1.61.21-.34.19h-.2c-.34,0-.34,0-.47-.4a4.59,4.59,0,0,1-2.69-.34l-.67-.33c.2-.4-2.69-2.22-3-2.29L469,55.2l-.33-.14s-1.62-1.61-2.36-2.22c-.67-.8-1.21-1.68-1.88-2.35-1.81-2.36-2.76-3-3.5-5.25l-.47-.94-1.88,1.49-1.14.66-.61.47c-.2.28-1.07.74-1.07.95l-.21.67c-.4,1.82-1.54,3-1.41,4.71-.4.4-2.22,6.39-2.62,7.26,0,0-.34.34-.34.53l-.26.34v.54l-.41.33a2.47,2.47,0,0,0-.4,1.62l-.14-.2a22.74,22.74,0,0,1-1.54-9.15A88.19,88.19,0,0,1,449.31,41.88Zm9.88-12.77c-.33.13-.6,1.95-.8,2.48a4.07,4.07,0,0,0-.13.68c-.21,1.21-.34,3.83-.81,4.84a1.31,1.31,0,0,1-.27.54c0,.2-.2.8-.2,1.07s-.14,1.15-.14,1.42a6,6,0,0,0-.26,1.94v.61c.4-.47,2.89-2.55,3.42-3.09A34.25,34.25,0,0,1,463.1,37c2-1.62,2.68-2,4.7-3.84a12.75,12.75,0,0,0,3.5-3.36,4.64,4.64,0,0,0,1.14-2.08c0-.14-.06-.74-.06-.88,0-.47-.88-.47-1.28-.47A24.3,24.3,0,0,0,459.19,29.11Z"/><path class="cls-1" d="M450.62,65.5,449.57,64a23.15,23.15,0,0,1-1.63-9.43,89.18,89.18,0,0,1,.87-12.7,43,43,0,0,1,1.44-6.89c0-.17.09-.39.15-.6a6.6,6.6,0,0,0,.29-1.73c0-.06-.06-.15-.17-.29a3,3,0,0,1-.22-.32,4,4,0,0,1-.41-1.61c0-.5.28-1.75,2.82-2.6l.12-.09a5.23,5.23,0,0,1,.76-.9,3.22,3.22,0,0,0,.26-.29v-.13l.2-.15a3.42,3.42,0,0,0,.63-.71,2.39,2.39,0,0,1,2-1.27,2,2,0,0,1,.88.22,1.1,1.1,0,0,0,.4.11h0l.59-.3a11.4,11.4,0,0,1,1.59-.75c4-2.13,8.41-2.31,12.91-2.31a5.78,5.78,0,0,1,4.62,2.13c.58.65.66,2.16.66,3.68A6,6,0,0,1,478.1,29c-.93,2.59-3.3,4.94-5.26,6.7l-1,.86h-.21s-.17.13-.28.2a3.12,3.12,0,0,1-.59.31c-.57.41-1.11.86-1.64,1.3s-1.13.92-1.73,1.36a2.12,2.12,0,0,1-.79.5,1.3,1.3,0,0,0-.41.22l-.41.33a3.22,3.22,0,0,0-.73.67l-.13.13-.73.53-.63.43c-.11.1-.2.16-.27.22a22,22,0,0,1,3.53,3.18,32.84,32.84,0,0,0,2.51,2.45c1,.81,2.06,1.65,3.11,2.47l.7.54.81.43,2.6,1.3.2.19c.74.53,1.61,1.07,2.52,1.64s2,1.21,2.87,1.88l.19.12c.09,0,.36.27,1.35,1.11.64.55,1.61,1.37,1.8,1.48l.3.2a3.79,3.79,0,0,1,1,.82l.64.81H486a1.13,1.13,0,0,1-1-.16l-.06-.06h-1.44a3.83,3.83,0,0,1-1-.18,3.41,3.41,0,0,0-.86-.16,1.85,1.85,0,0,0-.82.22l-.33.12-1.51.19-.36.21h-.34c-.43,0-.64-.1-.78-.34a5.35,5.35,0,0,1-2.55-.43l-1.18-.57.13-.26a13.47,13.47,0,0,0-2.61-1.78l-.15,0-.07-.1-2.35-2.41-.41-.21s-1.6-1.6-2.32-2.18c-.33-.39-.57-.72-.82-1a10.91,10.91,0,0,0-1.1-1.35c-.51-.66-.92-1.15-1.28-1.59a10.52,10.52,0,0,1-2.33-3.85l-.17-.33-1.4,1.11-1.2.7-.5.4a4,4,0,0,1-.6.49l-.37.28-.19.63a10.56,10.56,0,0,1-.74,2,5,5,0,0,0-.65,2.48l0,.23-.17.16c-.2.3-1,2.69-1.52,4.28s-.83,2.48-1,2.84l-.09.14a1,1,0,0,0-.21.26v.17l-.09.06-.16.21v.6l-.59.48c-.22.22-.22,1-.22,1.23Zm4.15-38.58a2.84,2.84,0,0,1-.46.56,4.9,4.9,0,0,0-.67.8l-.13.15-.42.28c-1.62.52-2.2,1.23-2.2,1.67a3.26,3.26,0,0,0,.26,1.1,2,2,0,0,0,.17.23,1.4,1.4,0,0,1,.37.89,7.46,7.46,0,0,1-.32,2c-.06.21-.11.41-.16.63a39.57,39.57,0,0,0-1.4,6.73h0a87.35,87.35,0,0,0-.87,12.57,24.81,24.81,0,0,0,1,7.67,1.48,1.48,0,0,1,.22-.29l.26-.21v-.48l.3-.38a1.5,1.5,0,0,1,.38-.6c.16-.4.53-1.5.92-2.67a38.43,38.43,0,0,1,1.61-4.45,6.23,6.23,0,0,1,.75-2.79,9.81,9.81,0,0,0,.68-1.89l.2-.66c.06-.32.35-.53.75-.82a3,3,0,0,0,.42-.32l.1-.1.6-.47,1.2-.71,2.31-1.82.74,1.49a9.84,9.84,0,0,0,2.18,3.59c.37.45.79,1,1.26,1.57A13,13,0,0,1,466,51.59c.23.31.46.63.72.93.6.49,1.92,1.79,2.25,2.11l.41.22,2.35,2.41a10.28,10.28,0,0,1,3.17,2.35v0l.45.23a4.12,4.12,0,0,0,2.36.3l.44-.1.14.42,0,.06h.05l.41-.19,1.66-.25a2.86,2.86,0,0,1,1.22-.3,4.37,4.37,0,0,1,1.13.2,3.25,3.25,0,0,0,.75.14h1.12c-.31-.24-.8-.65-1.61-1.33-.49-.42-1.1-1-1.23-1l-.24-.15c-.9-.66-1.87-1.27-2.82-1.85s-1.81-1.13-2.64-1.73l-.19-.18-3.31-1.66-.77-.59c-1.06-.82-2.16-1.67-3.15-2.49s-1.82-1.73-2.59-2.53a20.13,20.13,0,0,0-3.62-3.22l-.13-.12-.41-.57.22-.29a1.27,1.27,0,0,1,.43-.4,1.56,1.56,0,0,0,.31-.23,7.88,7.88,0,0,1,.73-.51l.65-.47a4.29,4.29,0,0,1,.91-.84l.34-.26a2,2,0,0,1,.69-.41,1.12,1.12,0,0,0,.46-.27l.09-.08c.59-.43,1.17-.91,1.72-1.37s1.16-1,1.78-1.39l.13-.1h.16s.16-.12.28-.19a3.49,3.49,0,0,1,.54-.3l.1-.1.72-.58c1.85-1.66,4.1-3.89,4.95-6.23a5.17,5.17,0,0,0,.17-1.65c0-2.12-.23-2.81-.41-3A4.86,4.86,0,0,0,473,22.21c-4.37,0-8.61.17-12.54,2.23a14.07,14.07,0,0,0-1.5.72l-.76.38-.19,0h-.13a2,2,0,0,1-.8-.2,1.23,1.23,0,0,0-.48-.13c-.5,0-.75.31-1.16.86A4.22,4.22,0,0,1,454.77,26.92Zm1.31,17.13v-2a6.52,6.52,0,0,1,.27-2c0-.17,0-.48.07-.76s.06-.48.06-.57a3.68,3.68,0,0,1,.12-.73,2.66,2.66,0,0,0,.08-.35v-.15l.1-.15a1,1,0,0,0,.16-.27l0-.17a13.85,13.85,0,0,0,.59-3.28c.06-.56.12-1.06.18-1.43a3.92,3.92,0,0,1,.15-.73c.07-.21.14-.51.22-.84.29-1.26.45-1.79.86-2a24.84,24.84,0,0,1,12.11-2.8c.48,0,1.78,0,1.78,1,0,.06,0,.23,0,.39s0,.41,0,.49a5.12,5.12,0,0,1-1.25,2.4,10.87,10.87,0,0,1-3,3l-.61.48c-1.37,1.23-2.13,1.82-3.11,2.58l-1.59,1.25a12.34,12.34,0,0,0-1.89,1.55c-.39.36-.79.73-1.2,1.07-.2.2-.79.72-1.43,1.27S457.16,42.77,457,43Zm1.58-6.21q0,.15-.09.39a4.85,4.85,0,0,0-.09.49c0,.11,0,.38-.07.68s-.07.6-.07.74l0,.14a5.51,5.51,0,0,0-.23,1.24l1.15-1c.61-.54,1.19-1,1.41-1.26.43-.36.81-.71,1.18-1.06a14.64,14.64,0,0,1,2-1.64c.6-.48,1.1-.87,1.56-1.22,1-.75,1.71-1.33,3.07-2.56l.65-.5a9.8,9.8,0,0,0,2.75-2.73l.14-.16a4.37,4.37,0,0,0,.95-1.77s0-.14,0-.31,0-.28,0-.38a2.93,2.93,0,0,0-.78-.07,23.69,23.69,0,0,0-11.63,2.68,9.38,9.38,0,0,0-.37,1.31c-.09.39-.17.74-.24.93a2.88,2.88,0,0,0-.1.5c-.07.44-.12.93-.18,1.46a15.41,15.41,0,0,1-.65,3.51A1.5,1.5,0,0,1,457.66,37.84Zm1.84-8.35Z"/><path class="cls-1" d="M485,55.73l-.14-.13c-.54-.67-1.48-1.14-1.81-2h.13c.34,0,.47.27.34-.4,0-.14-.34-.54-.34-.74h.2l1.62.2.13-.2c.2,0,.81.6.94.6l.74.27c.2,0,.88.27,1,.27a6.24,6.24,0,0,1,1.95.88,15.19,15.19,0,0,0,4.64,1.14c3.29.13,6.32-1.55,9-3.16a6.09,6.09,0,0,0,2.75-2l.14-.4c0-.07.94-.74.94-.87a7.64,7.64,0,0,0,.54-2.7c0-1.41-1.81-2.15-2.89-2.68a21.33,21.33,0,0,0-3.16-1.15c-.47-.13-1.21-.27-1.75-.47h-.27c-.2,0-1.41-.33-1.54-.33l-.48-.14h-.47c-.2,0-.53-.33-.8-.33-2.76-.81-7-1.55-9.08-3.77-.2-.47-.94-1.61-1.08-1.95a9.69,9.69,0,0,1-.33-3.16,4.85,4.85,0,0,1,1.41-3.16c2.49-2.62,4.44-4.44,7.94-5.71.13,0,.67-.27.8-.27s.94-.74,1.14-.74a31.83,31.83,0,0,1,5.18-.34,14,14,0,0,1,8.34,3.09l1.14,1.28c.14.14.14.54.14.87a2.13,2.13,0,0,1-.27,1.15A5.81,5.81,0,0,1,509,30.59a9.5,9.5,0,0,1-1.07.4,2.18,2.18,0,0,1-1-.4c-.66-.34-.4-.94-1-1.28C504.13,28,501.51,28,499.69,28c-2.69,0-2.89.74-5,2-.2,0-.67.74-.81.74l-.47.13-.13.47c0,.2-.81.74-.81.88l-.27.4-.54.61v.13c0,2.69,1.41,2.09,3.57,2.89.94.21,4.7,1.68,5.84,2.09,4.91,1.21,11.7,2.89,13.52,8.27v2.76a5.46,5.46,0,0,1-.47,1.61l-.54.54-.27.47c-.47,1-1.34,1.81-1.75,2.69l-.47,1-.6.34v.6l-.2.48a13.24,13.24,0,0,1-4.1,3.09,4.11,4.11,0,0,1-.88.33l-.47.14-.61.4c-.13,0-1.81.48-1.88.48a15.07,15.07,0,0,1-4.3,1.07,20,20,0,0,1-7.33-1.55c-.2,0-.88-.4-1-.4s-1.21-.47-1.41-.67L488,59.7v-.13l-.2-.21c-1-.74-2.22-1.48-3.16-2.21-.2-.27-.2-.27-.2-.68S484.77,56.07,485,55.73Z"/><path class="cls-1" d="M498.08,63.16a20.45,20.45,0,0,1-7.45-1.56,2.93,2.93,0,0,1-.7-.27l-.28-.13h-.21l-.05-.14L489,60.9a3.25,3.25,0,0,1-1-.51l-.49-.48v-.14l-.06-.06-1.28-.87c-.62-.43-1.27-.86-1.83-1.3l-.09-.1a1.19,1.19,0,0,1-.3-1,1,1,0,0,1,.31-.78c-.14-.14-.3-.27-.45-.41a4,4,0,0,1-1.24-1.52l-.26-.68h.6a1.29,1.29,0,0,1-.24-.64v-.5h.7l1.37.17.11-.17h.27a1.51,1.51,0,0,1,.87.46l.22.17.7.25a3.88,3.88,0,0,1,.64.17,2.3,2.3,0,0,0,.31.09,3.45,3.45,0,0,1,1.42.55A6.84,6.84,0,0,0,490,54l.32.11a13.43,13.43,0,0,0,4.11,1c3.12.12,6-1.46,8.75-3.09l.14-.07a5.42,5.42,0,0,0,2.43-1.77l.09-.26c0-.2.19-.32.53-.59.13-.11.36-.3.45-.39a7.3,7.3,0,0,0,.49-2.48c0-1-1.33-1.61-2.3-2.09l-.31-.15a23.79,23.79,0,0,0-3.07-1.11L501,43a11.91,11.91,0,0,1-1.17-.32h-.18a5.57,5.57,0,0,1-1-.21l-.56-.13H498l-.41-.12h-.4a1.25,1.25,0,0,1-.6-.22,1.72,1.72,0,0,0-.22-.12h-.12c-.5-.15-1-.29-1.61-.44-2.62-.69-5.89-1.54-7.69-3.47l-.1-.14c-.09-.22-.34-.64-.56-1s-.42-.71-.5-.89c-.28-.46-.39-1.46-.39-3.4A5.38,5.38,0,0,1,487,28.94c2.41-2.55,4.42-4.48,8.09-5.81l.17,0,.22-.1a3.7,3.7,0,0,1,.46-.16l.3-.23c.46-.34.71-.52,1-.52a30.19,30.19,0,0,1,5.18-.34A14.51,14.51,0,0,1,511,25l1.2,1.34a1.69,1.69,0,0,1,.27,1.2,2.66,2.66,0,0,1-.31,1.35,6.17,6.17,0,0,1-3.1,2.23l-.22.1a2.74,2.74,0,0,1-1,.32,2.59,2.59,0,0,1-1.3-.49,1.54,1.54,0,0,1-.72-.89c-.08-.21-.12-.29-.24-.36-1.67-1.22-4.15-1.22-5.95-1.22a4.66,4.66,0,0,0-3.45,1.11c-.35.24-.75.52-1.26.84l-.13.07-.23.25c-.22.25-.38.44-.61.48l-.17,0,0,.16c-.05.29-.31.52-.63.79l-.2.18-.33.49-.45.51c0,1.56.44,1.65,1.68,1.94a11.73,11.73,0,0,1,1.56.43c.63.14,2.68.91,4.32,1.52l1.52.57c5,1.23,11.91,2.93,13.82,8.58l0,.16v2.76a5.64,5.64,0,0,1-.57,1.91l-.54.54-.24.42a8.7,8.7,0,0,1-1,1.48,7,7,0,0,0-.76,1.17l-.54,1.15-.49.27,0,.51-.29.61a13.56,13.56,0,0,1-4.24,3.2,4.15,4.15,0,0,1-1,.39l-.36.1-.67.44h-.15l-1.06.28-.71.19c-.39.11-.77.24-1.14.37A9.61,9.61,0,0,1,498.08,63.16ZM490,60.25a2.87,2.87,0,0,1,.42.18,4.46,4.46,0,0,0,.43.19l.13,0a19.91,19.91,0,0,0,7.15,1.51A8.68,8.68,0,0,0,501,61.5c.4-.14.81-.28,1.23-.4h.13s.26-.08.56-.16c.67-.18,1-.26,1.13-.29l.66-.41.61-.16a4.3,4.3,0,0,0,.65-.28,12.5,12.5,0,0,0,3.9-2.92l.13-.3v-.79l.72-.4.4-.87a8.07,8.07,0,0,1,.87-1.34,8.83,8.83,0,0,0,.88-1.34l.37-.62.53-.53a6.9,6.9,0,0,0,.33-1.27V46.74c-1.77-5.07-8.34-6.68-13.14-7.87l-1.58-.58c-1.44-.54-3.62-1.36-4.25-1.5a12.79,12.79,0,0,0-1.5-.42c-1.32-.3-2.46-.56-2.46-3v-.33l.66-.74.19-.28a1.68,1.68,0,0,1,.47-.53l.32-.29.2-.72.68-.19.15-.18a1.67,1.67,0,0,1,.67-.57c.45-.28.81-.54,1.13-.76a5.61,5.61,0,0,1,4-1.29c1.83,0,4.6,0,6.48,1.38a1.39,1.39,0,0,1,.64.84c.09.23.13.31.3.39l.13.09a1.72,1.72,0,0,0,.66.26,6.16,6.16,0,0,0,.57-.24,2.22,2.22,0,0,1,.41-.16,5.35,5.35,0,0,0,2.43-1.72,1.6,1.6,0,0,0,.19-.88,2.51,2.51,0,0,0,0-.58l-1.11-1.23a13.45,13.45,0,0,0-8-2.93,29.72,29.72,0,0,0-5.08.33c-.06,0-.32.22-.46.33-.38.29-.55.42-.78.42a1.86,1.86,0,0,1-.22.1,2.43,2.43,0,0,1-.47.15c-3.43,1.27-5.35,3.11-7.68,5.58a4.38,4.38,0,0,0-1.28,2.81,8,8,0,0,0,.24,2.87l.06.1a8.94,8.94,0,0,0,.45.81c.22.38.45.77.58,1,1.62,1.68,4.69,2.48,7.16,3.13l1.59.43a1.5,1.5,0,0,1,.62.25l.16.09h.48l.49.14.67.15a8.15,8.15,0,0,0,.8.18h.34l.08,0a11,11,0,0,0,1.14.32c.21,0,.41.09.57.14a23.9,23.9,0,0,1,3.23,1.17l.32.15c1.14.56,2.87,1.39,2.87,3a8.43,8.43,0,0,1-.55,2.84c-.07.24-.3.43-.76.8l-.23.19-.19.46a6.34,6.34,0,0,1-2.83,2.1l-.1,0c-2.8,1.69-5.86,3.35-9.24,3.21h0a14.34,14.34,0,0,1-4.43-1l-.35-.13c-.38-.17-.62-.32-.84-.44a2.39,2.39,0,0,0-1-.41,2.15,2.15,0,0,1-.5-.14,3.4,3.4,0,0,0-.46-.13l-.15,0-.7-.25a1.66,1.66,0,0,1-.56-.35l-.09-.07,0,.06L484,53a.88.88,0,0,1,0,.16.77.77,0,0,1-.13.8,6.06,6.06,0,0,0,.58.54,6.3,6.3,0,0,1,.78.77l.38.36-.2.34a1.19,1.19,0,0,1-.44.42,1,1,0,0,0,0,.32l.05.06c.52.4,1.13.82,1.72,1.22s.94.63,1.38,1l.4.4v.13l.19.19a5.7,5.7,0,0,0,.66.29A4.19,4.19,0,0,1,490,60.25Z"/></g></g></svg>